<svg xmlns="http://www.w3.org/2000/svg" xmlns:xlink="http://www.w3.org/1999/xlink" width="500" zoomAndPan="magnify"
    viewBox="0 0 375 374.999991" height="500" preserveAspectRatio="xMidYMid meet" version="1.0">
    <rect x="-37.5" width="450" fill="#ffffff" y="-37.499999" height="449.999989" fill-opacity="1" />
    <rect x="-37.5" width="450" fill="#ffffff" y="-37.499999" height="449.999989" fill-opacity="1" />
    <path fill="#000000"
        d="M 186.949219 173.976562 C 170.753906 173.976562 157.703125 160.769531 157.546875 144.734375 C 157.546875 128.378906 170.753906 115.332031 186.949219 115.332031 C 203.144531 115.332031 216.351562 128.539062 216.351562 144.734375 C 216.351562 160.925781 203.144531 173.976562 186.949219 173.976562 Z M 198.585938 346.621094 C 199.84375 309.039062 219.96875 281.996094 241.980469 252.59375 C 269.183594 216.746094 299.054688 177.4375 296.226562 109.828125 C 282.546875 139.230469 263.363281 165.015625 245.28125 189.703125 C 208.175781 239.542969 174.683594 284.828125 198.585938 346.621094 Z M 206.289062 363.914062 L 203.929688 363.914062 C 203.929688 364.703125 203.617188 365.332031 203.460938 365.800781 L 203.144531 366.117188 C 202.671875 366.589844 202.203125 366.589844 201.730469 366.902344 L 201.414062 366.902344 C 200.628906 366.902344 200 366.589844 199.527344 366.429688 L 199.214844 366.117188 C 198.898438 365.800781 198.898438 365.644531 198.742188 365.332031 C 192.765625 353.695312 188.679688 342.847656 186.007812 332.3125 C 183.648438 342.6875 179.246094 353.695312 173.269531 365.332031 C 172.957031 365.644531 172.957031 365.800781 172.796875 366.117188 L 172.484375 366.429688 C 171.699219 366.746094 171.226562 366.902344 170.597656 366.902344 C 169.8125 366.589844 169.339844 366.429688 169.183594 366.117188 L 168.867188 365.800781 C 168.554688 365.332031 168.394531 364.542969 168.394531 363.914062 C 174.214844 319.105469 151.730469 289.386719 127.203125 256.839844 C 100.945312 222.089844 72.484375 184.511719 71.539062 122.25 C 52.515625 197.71875 82.074219 237.5 108.960938 273.191406 C 128.773438 299.765625 146.539062 323.820312 143.710938 358.253906 C 143.710938 360.140625 141.980469 361.554688 140.09375 361.398438 C 138.679688 361.398438 137.421875 360.140625 137.265625 358.726562 C 136.320312 359.667969 134.90625 359.984375 133.648438 359.511719 C 97.011719 343.316406 66.195312 318.003906 43.238281 286.871094 C 20.28125 255.738281 5.1875 218.789062 0.316406 179.324219 C 0 177.4375 1.257812 175.707031 3.144531 175.394531 C 3.460938 175.394531 3.929688 175.394531 4.089844 175.394531 C 13.050781 176.652344 21.699219 179.480469 30.1875 183.570312 C 38.363281 187.65625 46.382812 192.6875 54.089844 197.5625 C 55.503906 198.820312 55.976562 200.707031 55.03125 202.4375 C 53.773438 203.851562 51.886719 204.324219 50.15625 203.378906 C 42.609375 198.507812 34.90625 193.789062 27.042969 189.859375 C 20.597656 186.714844 13.992188 184.039062 7.234375 182.941406 C 12.578125 219.890625 26.730469 254.007812 48.269531 282.941406 C 70.441406 313.128906 100.628906 337.65625 136.007812 353.378906 C 136.476562 353.378906 136.949219 353.851562 137.265625 354.167969 C 138.523438 324.292969 121.855469 301.808594 103.773438 277.75 C 73.425781 237.027344 38.992188 190.960938 73.113281 95.046875 L 73.113281 94.261719 L 73.425781 93.945312 C 73.742188 93.476562 74.214844 93.476562 74.371094 93.160156 L 74.683594 93.160156 C 75 92.847656 75.472656 92.847656 75.628906 92.847656 C 75.628906 92.847656 75.628906 92.847656 75.945312 92.847656 L 79.246094 92.847656 C 79.558594 92.847656 79.558594 93.160156 79.71875 93.160156 C 80.1875 93.476562 80.1875 93.945312 80.503906 94.105469 C 81.445312 96.460938 82.390625 99.136719 83.648438 101.652344 C 108.175781 137.34375 133.332031 161.871094 165.566406 190.332031 C 186.320312 206.054688 198.425781 224.292969 201.414062 245.832031 C 203.617188 223.664062 197.011719 217.21875 188.679688 206.996094 C 197.796875 195.363281 208.019531 186.085938 218.554688 177.121094 C 242.136719 157.3125 268.710938 139.230469 294.023438 101.652344 C 294.96875 99.292969 296.226562 96.621094 297.167969 94.105469 C 297.484375 93.632812 297.640625 93.316406 297.957031 93.160156 C 298.269531 93.160156 298.269531 92.847656 298.425781 92.847656 L 299.371094 92.847656 C 299.371094 92.847656 299.371094 92.847656 299.683594 92.847656 C 300 92.847656 300.472656 92.847656 300.628906 93.160156 L 300.941406 93.160156 C 301.257812 93.476562 301.730469 93.632812 301.886719 93.945312 L 302.203125 94.261719 L 302.203125 94.890625 C 336.476562 190.800781 302.203125 236.871094 271.539062 277.59375 C 253.460938 301.652344 236.792969 324.136719 237.734375 354.007812 C 238.207031 353.695312 238.523438 353.539062 238.992188 353.222656 C 274.371094 337.34375 304.558594 312.972656 326.730469 282.78125 C 348.113281 253.851562 362.578125 219.574219 367.765625 182.78125 C 361.007812 184.199219 354.558594 186.714844 347.957031 189.703125 C 339.9375 193.632812 332.234375 198.347656 324.84375 203.222656 C 323.113281 204.480469 321.226562 204.007812 319.96875 202.28125 C 318.710938 200.550781 319.183594 198.347656 320.910156 197.40625 C 328.460938 192.375 336.320312 187.5 344.8125 183.410156 C 353.300781 179.324219 361.949219 176.179688 370.910156 175.234375 C 371.226562 175.234375 371.699219 175.234375 371.855469 175.234375 C 373.585938 175.550781 375 177.121094 374.683594 179.167969 C 370.125 218.632812 355.1875 255.894531 332.074219 286.871094 C 309.121094 318.003906 278.300781 343.316406 241.667969 359.511719 C 240.410156 359.984375 238.992188 359.828125 238.050781 358.726562 C 237.734375 360.140625 236.636719 361.085938 235.21875 361.398438 C 233.332031 361.714844 231.917969 360.140625 231.605469 358.253906 C 228.773438 323.507812 246.539062 299.449219 266.351562 273.191406 C 292.925781 237.5 322.796875 197.71875 303.773438 122.25 C 302.832031 184.511719 274.371094 222.089844 248.113281 256.839844 C 222.957031 289.386719 200.472656 319.105469 206.289062 363.914062 Z M 128.617188 189.703125 C 110.535156 165.015625 91.507812 139.230469 77.671875 109.828125 C 75 177.121094 104.71875 216.589844 131.917969 252.59375 C 153.929688 281.996094 174.371094 309.039062 175.3125 346.621094 C 199.054688 285.140625 165.566406 239.542969 128.617188 189.703125 Z M 186.949219 17.058594 C 233.492188 17.058594 275.628906 36.085938 306.289062 66.429688 C 331.917969 92.058594 349.371094 126.023438 354.246094 163.601562 C 357.074219 162.65625 360.0625 161.871094 362.894531 161.398438 C 357.546875 122.089844 339.308594 86.871094 312.578125 60.140625 C 280.503906 28.066406 236.164062 8.097656 186.949219 8.097656 C 137.734375 8.097656 93.710938 27.910156 61.320312 60.140625 C 34.589844 86.871094 16.195312 122.089844 11.007812 161.398438 C 13.835938 162.183594 16.824219 162.65625 19.652344 163.601562 C 24.527344 126.023438 41.980469 92.058594 67.609375 66.429688 C 98.269531 35.769531 140.410156 17.058594 186.949219 17.058594 Z M 186.949219 17.058594 "
        fill-opacity="1" fill-rule="evenodd" />
</svg>