<svg xmlns="http://www.w3.org/2000/svg" xmlns:xlink="http://www.w3.org/1999/xlink" width="500" zoomAndPan="magnify"
    viewBox="0 0 375 374.999991" height="500" preserveAspectRatio="xMidYMid meet" version="1.0">
    <!-- <g clip-path="url(#be2bbf2460)"> -->
        <path fill="#9bec00"
            d="M 95.378906 59.214844 C 95.378906 59.214844 104.4375 127.171875 151.085938 137.695312 C 186.441406 145.664062 295.972656 120.183594 295.972656 120.183594 C 295.972656 120.183594 151.214844 174.519531 151.691406 217.378906 C 152.292969 271.710938 219.300781 315.78125 219.300781 315.78125 C 219.300781 315.78125 41.050781 284.726562 95.378906 59.214844 "
            fill-opacity="1" fill-rule="nonzero" />
    <!-- </g> -->
    <path fill="#38b6ff"
        d="M 182.484375 100.261719 C 182.484375 115.765625 169.914062 128.335938 154.410156 128.335938 C 138.910156 128.335938 126.339844 115.765625 126.339844 100.261719 C 126.339844 84.761719 138.910156 72.191406 154.410156 72.191406 C 169.914062 72.191406 182.484375 84.761719 182.484375 100.261719 "
        fill-opacity="1" fill-rule="nonzero" />
    <path fill="#669b00"
        d="M 296.671875 70.261719 C 296.671875 70.261719 249.089844 88.632812 270.507812 118.101562 C 306.871094 120.230469 296.671875 70.261719 296.671875 70.261719 "
        fill-opacity="1" fill-rule="nonzero" />
    <path fill="#669b00"
        d="M 320.421875 168.910156 C 320.421875 168.910156 311.765625 118.648438 278.660156 133.847656 C 269.417969 169.085938 320.421875 168.910156 320.421875 168.910156 "
        fill-opacity="1" fill-rule="nonzero" />
    <g clip-path="url(#534ed884a3)">
        <path fill="#669b00"
            d="M 367.128906 99.464844 C 367.128906 99.464844 307.742188 72.726562 300.1875 118.625 C 330.882812 153.574219 367.128906 99.464844 367.128906 99.464844 "
            fill-opacity="1" fill-rule="nonzero" />
    </g>
    <path fill="#2681b6"
        d="M 248.679688 179.863281 C 255.152344 191.339844 257.035156 202.339844 253.175781 211.652344 C 241.539062 239.714844 182.191406 241.773438 120.617188 216.246094 C 59.042969 190.71875 18.554688 147.269531 30.195312 119.207031 C 34.050781 109.898438 43.164062 103.453125 55.863281 99.925781 C 34.375 102.449219 18.753906 110.558594 13.128906 124.125 C 0.160156 155.417969 45.296875 203.859375 113.953125 232.324219 C 182.605469 260.785156 248.777344 258.492188 261.753906 227.199219 C 267.378906 213.632812 262.078125 196.847656 248.679688 179.863281 "
        fill-opacity="1" fill-rule="nonzero" />
</svg>