<svg xmlns="http://www.w3.org/2000/svg" xmlns:xlink="http://www.w3.org/1999/xlink" width="500" zoomAndPan="magnify" viewBox="0 0 375 374.999991" height="500" preserveAspectRatio="xMidYMid meet" version="1.0"><defs><filter x="0%" y="0%" width="100%" height="100%" id="b416176b2c"><feColorMatrix values="0 0 0 0 1 0 0 0 0 1 0 0 0 0 1 0 0 0 1 0" color-interpolation-filters="sRGB"/></filter><clipPath id="760624fc33"><path d="M 7.160156 6.046875 L 369.019531 6.046875 L 369.019531 367.90625 L 7.160156 367.90625 Z M 7.160156 6.046875 " clip-rule="nonzero"/></clipPath><clipPath id="91751097ac"><path d="M 188.089844 6.046875 C 88.164062 6.046875 7.160156 87.050781 7.160156 186.976562 C 7.160156 286.902344 88.164062 367.90625 188.089844 367.90625 C 288.015625 367.90625 369.019531 286.902344 369.019531 186.976562 C 369.019531 87.050781 288.015625 6.046875 188.089844 6.046875 Z M 188.089844 6.046875 " clip-rule="nonzero"/></clipPath><mask id="77c12d2ae6"><g filter="url(#b416176b2c)"><rect x="-37.5" width="450" fill="#000000" y="-37.499999" height="449.999989" fill-opacity="0.7"/></g></mask><clipPath id="739267f07f"><path d="M 6.5625 6.449219 L 361.277344 6.449219 L 361.277344 361.164062 L 6.5625 361.164062 Z M 6.5625 6.449219 " clip-rule="nonzero"/></clipPath><clipPath id="e42a4ac0d7"><path d="M 184.089844 6.449219 C 86.042969 6.449219 6.5625 85.929688 6.5625 183.976562 C 6.5625 282.023438 86.042969 361.507812 184.089844 361.507812 C 282.136719 361.507812 361.621094 282.023438 361.621094 183.976562 C 361.621094 85.929688 282.136719 6.449219 184.089844 6.449219 Z M 184.089844 6.449219 " clip-rule="nonzero"/></clipPath><clipPath id="09663b212a"><rect x="0" width="368" y="0" height="368"/></clipPath><clipPath id="320dbe290e"><path d="M 14.394531 13.285156 L 360.742188 13.285156 L 360.742188 359.628906 L 14.394531 359.628906 Z M 14.394531 13.285156 " clip-rule="nonzero"/></clipPath><clipPath id="78c48c03af"><path d="M 187.714844 13.285156 C 91.992188 13.285156 14.394531 90.882812 14.394531 186.601562 C 14.394531 282.324219 91.992188 359.921875 187.714844 359.921875 C 283.4375 359.921875 361.035156 282.324219 361.035156 186.601562 C 361.035156 90.882812 283.4375 13.285156 187.714844 13.285156 Z M 187.714844 13.285156 " clip-rule="nonzero"/></clipPath><clipPath id="7465ec2c5a"><path d="M 106 108.066406 L 273 108.066406 L 273 311 L 106 311 Z M 106 108.066406 " clip-rule="nonzero"/></clipPath><clipPath id="d6bb4a6dc2"><path d="M 276 133 L 328.90625 133 L 328.90625 165 L 276 165 Z M 276 133 " clip-rule="nonzero"/></clipPath></defs><rect x="-37.5" width="450" fill="#ffffff" y="-37.499999" height="449.999989" fill-opacity="1"/><rect x="-37.5" width="450" fill="#ffffff" y="-37.499999" height="449.999989" fill-opacity="1"/><g clip-path="url(#760624fc33)"><g clip-path="url(#91751097ac)"><path fill="#85cb00" d="M 185.078125 6.820312 L 182.8125 6.871094 L 182.78125 5.371094 L 185.042969 5.320312 Z M 182.074219 6.894531 L 179.820312 6.984375 L 179.761719 5.484375 L 182.015625 5.394531 Z M 179.082031 7.015625 L 176.835938 7.140625 L 176.753906 5.644531 L 179 5.519531 Z M 176.101562 7.1875 L 173.867188 7.347656 L 173.757812 5.851562 L 175.996094 5.691406 Z M 173.136719 7.40625 L 170.910156 7.605469 L 170.777344 6.109375 L 173.003906 5.914062 Z M 170.183594 7.675781 L 167.9375 7.910156 L 167.78125 6.417969 L 170.027344 6.183594 Z M 167.199219 7.996094 L 164.953125 8.269531 L 164.769531 6.777344 L 167.015625 6.503906 Z M 164.21875 8.363281 L 161.984375 8.671875 L 161.777344 7.1875 L 164.011719 6.878906 Z M 161.253906 8.78125 L 159.03125 9.128906 L 158.800781 7.644531 L 161.023438 7.300781 Z M 158.304688 9.246094 L 156.09375 9.628906 L 155.839844 8.148438 L 158.046875 7.769531 Z M 155.371094 9.757812 L 153.171875 10.175781 L 152.894531 8.703125 L 155.089844 8.285156 Z M 152.453125 10.320312 L 150.246094 10.777344 L 149.941406 9.308594 L 152.148438 8.851562 Z M 149.519531 10.933594 L 147.316406 11.429688 L 146.988281 9.964844 L 149.191406 9.46875 Z M 146.59375 11.597656 L 144.402344 12.128906 L 144.050781 10.671875 L 146.242188 10.140625 Z M 143.6875 12.308594 L 141.511719 12.875 L 141.132812 11.421875 L 143.308594 10.855469 Z M 140.800781 13.066406 L 138.636719 13.667969 L 138.234375 12.222656 L 140.398438 11.621094 Z M 137.929688 13.871094 L 135.78125 14.507812 L 135.355469 13.066406 L 137.503906 12.433594 Z M 135.078125 14.71875 L 132.929688 15.394531 L 132.480469 13.964844 L 134.628906 13.289062 Z M 132.222656 15.625 L 130.082031 16.335938 L 129.609375 14.914062 L 131.75 14.199219 Z M 129.382812 16.578125 L 127.257812 17.324219 L 126.757812 15.910156 L 128.886719 15.160156 Z M 126.5625 17.574219 L 124.453125 18.355469 L 123.929688 16.949219 L 126.042969 16.167969 Z M 123.765625 18.617188 L 121.671875 19.433594 L 121.125 18.035156 L 123.21875 17.21875 Z M 120.988281 19.707031 L 118.910156 20.554688 L 118.34375 19.164062 L 120.417969 18.316406 Z M 118.234375 20.835938 L 116.160156 21.726562 L 115.570312 20.347656 L 117.644531 19.460938 Z M 115.484375 22.023438 L 113.425781 22.945312 L 112.8125 21.578125 L 114.867188 20.65625 Z M 112.753906 23.253906 L 110.714844 24.210938 L 110.078125 22.851562 L 112.117188 21.894531 Z M 110.046875 24.527344 L 108.027344 25.515625 L 107.367188 24.167969 L 109.390625 23.179688 Z M 107.367188 25.84375 L 105.367188 26.867188 L 104.683594 25.53125 L 106.6875 24.507812 Z M 104.710938 27.207031 L 102.730469 28.257812 L 102.027344 26.933594 L 104.007812 25.882812 Z M 102.082031 28.609375 L 100.109375 29.699219 L 99.382812 28.386719 L 101.355469 27.296875 Z M 99.464844 30.0625 L 97.511719 31.183594 L 96.761719 29.882812 L 98.71875 28.761719 Z M 96.871094 31.558594 L 94.9375 32.710938 L 94.171875 31.421875 L 96.105469 30.269531 Z M 94.308594 33.09375 L 92.394531 34.28125 L 91.605469 33.003906 L 93.519531 31.820312 Z M 91.773438 34.671875 L 89.882812 35.886719 L 89.070312 34.625 L 90.960938 33.410156 Z M 89.265625 36.292969 L 87.394531 37.535156 L 86.5625 36.289062 L 88.433594 35.042969 Z M 86.785156 37.953125 L 84.929688 39.230469 L 84.078125 37.996094 L 85.929688 36.71875 Z M 84.324219 39.65625 L 82.492188 40.964844 L 81.621094 39.746094 L 83.453125 38.4375 Z M 81.894531 41.398438 L 80.085938 42.738281 L 79.195312 41.535156 L 81.003906 40.195312 Z M 79.496094 43.183594 L 77.710938 44.550781 L 76.800781 43.359375 L 78.585938 41.992188 Z M 77.128906 45.003906 L 75.367188 46.402344 L 74.4375 45.226562 L 76.199219 43.828125 Z M 74.792969 46.863281 L 73.054688 48.292969 L 72.101562 47.132812 L 73.84375 45.703125 Z M 72.488281 48.765625 L 70.769531 50.21875 L 69.800781 49.074219 L 71.515625 47.621094 Z M 70.210938 50.703125 L 68.519531 52.1875 L 67.53125 51.058594 L 69.222656 49.574219 Z M 67.96875 52.675781 L 66.300781 54.1875 L 65.292969 53.078125 L 66.960938 51.566406 Z M 65.757812 54.6875 L 64.113281 56.226562 L 63.089844 55.132812 L 64.730469 53.59375 Z M 63.582031 56.734375 L 61.964844 58.300781 L 60.921875 57.222656 L 62.535156 55.660156 Z M 61.4375 58.820312 L 60.429688 59.820312 L 59.847656 60.410156 L 58.785156 59.351562 L 59.371094 58.757812 L 60.378906 57.757812 Z M 59.332031 60.9375 L 57.765625 62.554688 L 56.6875 61.511719 L 58.253906 59.894531 Z M 57.257812 63.089844 L 55.71875 64.730469 L 54.625 63.707031 L 56.164062 62.0625 Z M 55.21875 65.273438 L 53.710938 66.945312 L 52.597656 65.9375 L 54.109375 64.269531 Z M 53.21875 67.496094 L 51.738281 69.1875 L 50.609375 68.199219 L 52.089844 66.507812 Z M 51.253906 69.746094 L 49.800781 71.464844 L 48.65625 70.496094 L 50.109375 68.777344 Z M 49.328125 72.035156 L 47.902344 73.773438 L 46.742188 72.824219 L 48.167969 71.082031 Z M 47.441406 74.347656 L 46.042969 76.113281 L 44.867188 75.179688 L 46.265625 73.417969 Z M 45.589844 76.691406 L 44.222656 78.480469 L 43.03125 77.570312 L 44.398438 75.78125 Z M 43.78125 79.070312 L 42.441406 80.878906 L 41.234375 79.988281 L 42.574219 78.179688 Z M 42.007812 81.476562 L 40.699219 83.308594 L 39.480469 82.4375 L 40.789062 80.605469 Z M 40.277344 83.914062 L 38.996094 85.769531 L 37.761719 84.917969 L 39.039062 83.0625 Z M 38.582031 86.382812 L 37.339844 88.25 L 36.089844 87.421875 L 37.332031 85.550781 Z M 36.933594 88.867188 L 35.722656 90.761719 L 34.460938 89.949219 L 35.671875 88.058594 Z M 35.328125 91.382812 L 34.144531 93.296875 L 32.871094 92.507812 L 34.054688 90.597656 Z M 33.761719 93.929688 L 32.609375 95.863281 L 31.320312 95.09375 L 32.472656 93.160156 Z M 32.238281 96.5 L 31.117188 98.457031 L 29.816406 97.710938 L 30.9375 95.753906 Z M 30.753906 99.101562 L 29.664062 101.074219 L 28.351562 100.351562 L 29.441406 98.375 Z M 29.316406 101.722656 L 28.261719 103.707031 L 26.9375 103.003906 L 27.988281 101.019531 Z M 27.925781 104.359375 L 26.90625 106.363281 L 25.566406 105.679688 L 26.585938 103.679688 Z M 26.574219 107.019531 L 25.589844 109.042969 L 24.242188 108.386719 L 25.226562 106.363281 Z M 25.269531 109.707031 L 24.316406 111.75 L 22.957031 111.113281 L 23.910156 109.074219 Z M 24.007812 112.421875 L 23.085938 114.480469 L 21.71875 113.867188 L 22.640625 111.808594 Z M 22.789062 115.15625 L 21.90625 117.230469 L 20.523438 116.640625 L 21.410156 114.566406 Z M 21.621094 117.910156 L 20.773438 119.984375 L 19.386719 119.417969 L 20.230469 117.34375 Z M 20.5 120.667969 L 19.6875 122.761719 L 18.289062 122.21875 L 19.101562 120.125 Z M 19.425781 123.453125 L 18.644531 125.5625 L 17.238281 125.042969 L 18.019531 122.929688 Z M 18.394531 126.257812 L 17.648438 128.382812 L 16.234375 127.886719 L 16.980469 125.757812 Z M 17.410156 129.082031 L 16.699219 131.226562 L 15.277344 130.753906 L 15.988281 128.609375 Z M 16.472656 131.929688 L 15.796875 134.082031 L 14.367188 133.632812 L 15.039062 131.480469 Z M 15.585938 134.78125 L 14.949219 136.929688 L 13.511719 136.507812 L 14.144531 134.359375 Z M 14.746094 137.636719 L 14.148438 139.800781 L 12.703125 139.402344 L 13.300781 137.238281 Z M 13.957031 140.511719 L 13.390625 142.691406 L 11.941406 142.3125 L 12.503906 140.136719 Z M 13.210938 143.40625 L 12.683594 145.597656 L 11.222656 145.246094 L 11.753906 143.054688 Z M 12.515625 146.320312 L 12.019531 148.523438 L 10.558594 148.199219 L 11.050781 145.992188 Z M 11.863281 149.25 L 11.410156 151.457031 L 9.941406 151.152344 L 10.394531 148.945312 Z M 11.265625 152.175781 L 10.851562 154.375 L 9.375 154.097656 L 9.792969 151.898438 Z M 10.71875 155.097656 L 10.339844 157.308594 L 8.863281 157.054688 L 9.242188 154.84375 Z M 10.222656 158.035156 L 9.875 160.257812 L 8.394531 160.027344 L 8.738281 157.804688 Z M 9.769531 160.988281 L 9.460938 163.222656 L 7.972656 163.019531 L 8.28125 160.785156 Z M 9.367188 163.957031 L 9.09375 166.203125 L 7.605469 166.023438 L 7.875 163.777344 Z M 9.011719 166.941406 L 8.777344 169.1875 L 7.285156 169.03125 L 7.519531 166.789062 Z M 8.707031 169.917969 L 8.511719 172.140625 L 7.015625 172.011719 L 7.210938 169.785156 Z M 8.453125 172.871094 L 8.292969 175.109375 L 6.796875 175 L 6.957031 172.765625 Z M 8.246094 175.84375 L 8.125 178.085938 L 6.625 178.003906 L 6.75 175.761719 Z M 8.089844 178.824219 L 8.003906 181.082031 L 6.503906 181.023438 L 6.589844 178.769531 Z M 7.980469 181.820312 L 7.929688 184.085938 L 6.433594 184.050781 L 6.480469 181.789062 Z M 7.921875 184.828125 L 7.910156 186.980469 L 7.910156 187.097656 L 6.410156 187.097656 L 6.410156 186.972656 L 6.421875 184.820312 Z M 7.910156 187.847656 L 7.9375 190.117188 L 6.4375 190.132812 L 6.410156 187.863281 Z M 7.949219 190.859375 L 8.011719 193.121094 L 6.511719 193.164062 L 6.449219 190.902344 Z M 8.039062 193.863281 L 8.136719 196.113281 L 6.636719 196.179688 L 6.539062 193.925781 Z M 8.175781 196.851562 L 8.308594 199.089844 L 6.8125 199.183594 L 6.675781 196.941406 Z M 8.359375 199.824219 L 8.53125 202.058594 L 7.035156 202.171875 L 6.863281 199.941406 Z M 8.59375 202.789062 L 8.800781 205.007812 L 7.304688 205.148438 L 7.097656 202.925781 Z M 8.875 205.742188 L 9.121094 207.996094 L 7.628906 208.160156 L 7.382812 205.90625 Z M 9.207031 208.734375 L 9.492188 210.976562 L 8.003906 211.164062 L 7.722656 208.921875 Z M 9.59375 211.707031 L 9.914062 213.941406 L 8.429688 214.152344 L 8.109375 211.921875 Z M 10.023438 214.667969 L 10.378906 216.886719 L 8.898438 217.125 L 8.542969 214.90625 Z M 10.503906 217.613281 L 10.894531 219.820312 L 9.417969 220.082031 L 9.027344 217.875 Z M 11.03125 220.542969 L 11.457031 222.738281 L 9.984375 223.023438 L 9.558594 220.828125 Z M 11.605469 223.457031 L 12.074219 225.671875 L 10.605469 225.984375 L 10.136719 223.769531 Z M 12.234375 226.394531 L 12.738281 228.597656 L 11.277344 228.933594 L 10.773438 226.730469 Z M 12.910156 229.316406 L 13.453125 231.503906 L 11.996094 231.863281 L 11.453125 229.675781 Z M 13.636719 232.21875 L 14.210938 234.390625 L 12.761719 234.773438 L 12.1875 232.601562 Z M 14.40625 235.101562 L 15.019531 237.257812 L 13.574219 237.667969 L 12.964844 235.507812 Z M 15.222656 237.964844 L 15.871094 240.109375 L 14.433594 240.542969 L 13.789062 238.398438 Z M 16.089844 240.8125 L 16.777344 242.964844 L 15.347656 243.421875 L 14.660156 241.269531 Z M 17.007812 243.667969 L 17.730469 245.804688 L 16.308594 246.285156 L 15.585938 244.148438 Z M 17.972656 246.503906 L 18.730469 248.625 L 17.316406 249.128906 L 16.5625 247.007812 Z M 18.984375 249.316406 L 19.777344 251.421875 L 18.371094 251.949219 L 17.582031 249.84375 Z M 20.039062 252.109375 L 20.867188 254.199219 L 19.472656 254.75 L 18.644531 252.660156 Z M 21.140625 254.878906 L 22 256.949219 L 20.613281 257.523438 L 19.757812 255.453125 Z M 22.289062 257.628906 L 23.1875 259.699219 L 21.8125 260.296875 L 20.914062 258.226562 Z M 23.488281 260.375 L 24.421875 262.429688 L 23.054688 263.050781 L 22.121094 260.996094 Z M 24.730469 263.097656 L 25.695312 265.132812 L 24.339844 265.777344 L 23.375 263.742188 Z M 26.019531 265.796875 L 27.015625 267.8125 L 25.671875 268.476562 L 24.671875 266.460938 Z M 27.347656 268.46875 L 28.378906 270.46875 L 27.046875 271.15625 L 26.015625 269.15625 Z M 28.722656 271.117188 L 29.785156 273.097656 L 28.460938 273.804688 L 27.398438 271.828125 Z M 30.140625 273.746094 L 31.238281 275.714844 L 29.929688 276.445312 L 28.828125 274.476562 Z M 31.605469 276.355469 L 32.734375 278.304688 L 31.4375 279.058594 L 30.308594 277.109375 Z M 33.113281 278.9375 L 34.273438 280.867188 L 32.988281 281.640625 L 31.828125 279.714844 Z M 34.660156 281.496094 L 35.855469 283.402344 L 34.582031 284.199219 L 33.390625 282.289062 Z M 36.25 284.023438 L 37.472656 285.90625 L 36.214844 286.726562 L 34.992188 284.839844 Z M 37.878906 286.523438 L 39.136719 288.386719 L 37.890625 289.226562 L 36.636719 287.359375 Z M 39.554688 288.996094 L 40.84375 290.847656 L 39.613281 291.703125 L 38.324219 289.855469 Z M 41.269531 291.449219 L 42.589844 293.273438 L 41.371094 294.152344 L 40.054688 292.328125 Z M 43.027344 293.867188 L 44.375 295.671875 L 43.171875 296.570312 L 41.824219 294.765625 Z M 44.820312 296.257812 L 46.195312 298.035156 L 45.011719 298.953125 L 43.632812 297.175781 Z M 46.652344 298.617188 L 48.058594 300.371094 L 46.886719 301.308594 L 45.480469 299.554688 Z M 48.523438 300.945312 L 49.960938 302.675781 L 48.804688 303.632812 L 47.367188 301.898438 Z M 50.433594 303.242188 L 51.898438 304.953125 L 50.757812 305.925781 L 49.296875 304.21875 Z M 52.382812 305.507812 L 53.875 307.195312 L 52.753906 308.1875 L 51.261719 306.503906 Z M 54.371094 307.742188 L 55.886719 309.402344 L 54.78125 310.414062 L 53.261719 308.753906 Z M 56.390625 309.941406 L 57.9375 311.578125 L 56.847656 312.609375 L 55.300781 310.972656 Z M 58.449219 312.109375 L 60.023438 313.71875 L 58.949219 314.769531 L 57.375 313.160156 Z M 60.542969 314.242188 L 62.140625 315.824219 L 61.085938 316.890625 L 59.488281 315.308594 Z M 62.667969 316.339844 L 64.292969 317.894531 L 63.257812 318.980469 L 61.632812 317.421875 Z M 64.832031 318.402344 L 66.484375 319.933594 L 65.464844 321.03125 L 63.8125 319.503906 Z M 67.027344 320.429688 L 68.703125 321.929688 L 67.703125 323.046875 L 66.027344 321.546875 Z M 69.257812 322.417969 L 70.957031 323.894531 L 69.976562 325.027344 L 68.273438 323.554688 Z M 71.519531 324.375 L 73.246094 325.820312 L 72.28125 326.96875 L 70.554688 325.523438 Z M 73.8125 326.289062 L 75.5625 327.707031 L 74.617188 328.871094 L 72.871094 327.453125 Z M 76.136719 328.164062 L 77.90625 329.554688 L 76.980469 330.734375 L 75.210938 329.347656 Z M 78.492188 330.003906 L 80.285156 331.363281 L 79.378906 332.558594 L 77.585938 331.199219 Z M 80.878906 331.804688 L 82.695312 333.132812 L 81.808594 334.34375 L 79.992188 333.011719 Z M 83.292969 333.5625 L 85.132812 334.863281 L 84.265625 336.089844 L 82.425781 334.789062 Z M 85.738281 335.285156 L 87.601562 336.554688 L 86.753906 337.792969 L 84.894531 336.523438 Z M 88.210938 336.964844 L 90.089844 338.199219 L 89.265625 339.453125 L 87.386719 338.21875 Z M 90.707031 338.601562 L 92.605469 339.804688 L 91.800781 341.070312 L 89.902344 339.867188 Z M 93.230469 340.195312 L 95.152344 341.371094 L 94.367188 342.648438 L 92.449219 341.476562 Z M 95.785156 341.75 L 97.726562 342.894531 L 96.964844 344.183594 L 95.023438 343.042969 Z M 98.363281 343.261719 L 100.324219 344.375 L 99.585938 345.679688 L 97.625 344.566406 Z M 100.972656 344.734375 L 102.949219 345.8125 L 102.230469 347.128906 L 100.253906 346.050781 Z M 103.597656 346.160156 L 105.585938 347.199219 L 104.890625 348.527344 L 102.902344 347.488281 Z M 106.242188 347.535156 L 108.25 348.546875 L 107.574219 349.886719 L 105.566406 348.878906 Z M 108.910156 348.871094 L 110.9375 349.851562 L 110.285156 351.203125 L 108.257812 350.222656 Z M 111.605469 350.164062 L 113.652344 351.109375 L 113.023438 352.472656 L 110.976562 351.527344 Z M 114.324219 351.414062 L 116.386719 352.324219 L 115.78125 353.699219 L 113.71875 352.785156 Z M 117.066406 352.621094 L 119.140625 353.492188 L 118.554688 354.875 L 116.484375 354 Z M 119.820312 353.773438 L 121.902344 354.613281 L 121.339844 356.003906 L 119.257812 355.164062 Z M 122.585938 354.878906 L 124.683594 355.683594 L 124.148438 357.085938 L 122.050781 356.28125 Z M 125.375 355.941406 L 127.488281 356.714844 L 126.976562 358.121094 L 124.863281 357.351562 Z M 128.1875 356.960938 L 130.316406 357.695312 L 129.828125 359.113281 L 127.695312 358.378906 Z M 131.019531 357.929688 L 133.164062 358.632812 L 132.699219 360.058594 L 130.554688 359.355469 Z M 133.871094 358.855469 L 136.019531 359.519531 L 135.574219 360.953125 L 133.429688 360.289062 Z M 136.722656 359.730469 L 138.875 360.351562 L 138.457031 361.792969 L 136.304688 361.167969 Z M 139.582031 360.550781 L 141.75 361.140625 L 141.355469 362.589844 L 139.1875 362 Z M 142.464844 361.328125 L 144.644531 361.882812 L 144.273438 363.339844 L 142.09375 362.785156 Z M 145.363281 362.0625 L 147.558594 362.582031 L 147.214844 364.039062 L 145.015625 363.519531 Z M 148.28125 362.746094 L 150.488281 363.226562 L 150.167969 364.695312 L 147.960938 364.210938 Z M 151.214844 363.378906 L 153.414062 363.824219 L 153.117188 365.292969 L 150.921875 364.851562 Z M 154.132812 363.960938 L 156.335938 364.367188 L 156.066406 365.84375 L 153.863281 365.4375 Z M 157.058594 364.496094 L 159.273438 364.867188 L 159.027344 366.34375 L 156.8125 365.976562 Z M 160.003906 364.980469 L 162.230469 365.316406 L 162.007812 366.796875 L 159.78125 366.464844 Z M 162.960938 365.417969 L 165.199219 365.714844 L 165 367.203125 L 162.761719 366.90625 Z M 165.933594 365.808594 L 168.183594 366.070312 L 168.011719 367.558594 L 165.761719 367.296875 Z M 168.925781 366.148438 L 171.15625 366.371094 L 171.007812 367.863281 L 168.777344 367.640625 Z M 171.882812 366.4375 L 174.113281 366.621094 L 173.988281 368.117188 L 171.761719 367.933594 Z M 174.84375 366.675781 L 177.082031 366.828125 L 176.984375 368.324219 L 174.746094 368.175781 Z M 177.820312 366.867188 L 180.066406 366.980469 L 179.992188 368.480469 L 177.742188 368.367188 Z M 180.804688 367.011719 L 183.0625 367.089844 L 183.011719 368.585938 L 180.753906 368.511719 Z M 183.804688 367.105469 L 186.070312 367.144531 L 186.046875 368.644531 L 183.777344 368.605469 Z M 186.816406 367.152344 L 188.089844 367.15625 L 189.085938 367.152344 L 189.089844 368.652344 L 188.085938 368.65625 L 186.8125 368.652344 Z M 189.835938 367.148438 L 192.101562 367.113281 L 192.125 368.613281 L 189.859375 368.648438 Z M 192.84375 367.09375 L 195.101562 367.023438 L 195.152344 368.523438 L 192.894531 368.59375 Z M 195.839844 366.992188 L 198.089844 366.882812 L 198.164062 368.382812 L 195.914062 368.492188 Z M 198.828125 366.84375 L 201.066406 366.695312 L 201.164062 368.195312 L 198.921875 368.339844 Z M 201.796875 366.644531 L 204.027344 366.460938 L 204.148438 367.957031 L 201.917969 368.136719 Z M 204.757812 366.394531 L 206.984375 366.179688 L 207.128906 367.671875 L 204.902344 367.890625 Z M 207.722656 366.097656 L 209.972656 365.839844 L 210.144531 367.332031 L 207.894531 367.589844 Z M 210.710938 365.75 L 212.949219 365.457031 L 213.144531 366.941406 L 210.90625 367.238281 Z M 213.679688 365.351562 L 215.910156 365.023438 L 216.128906 366.507812 L 213.902344 366.835938 Z M 216.636719 364.90625 L 218.851562 364.542969 L 219.097656 366.019531 L 216.882812 366.386719 Z M 219.578125 364.414062 L 221.78125 364.011719 L 222.050781 365.488281 L 219.847656 365.890625 Z M 222.5 363.875 L 224.695312 363.4375 L 224.988281 364.90625 L 222.796875 365.34375 Z M 225.421875 363.285156 L 227.632812 362.804688 L 227.953125 364.269531 L 225.742188 364.75 Z M 228.355469 362.640625 L 230.554688 362.125 L 230.894531 363.585938 L 228.699219 364.101562 Z M 231.269531 361.949219 L 233.453125 361.398438 L 233.820312 362.851562 L 231.640625 363.402344 Z M 234.167969 361.210938 L 236.335938 360.625 L 236.726562 362.074219 L 234.558594 362.660156 Z M 237.046875 360.425781 L 239.199219 359.804688 L 239.617188 361.246094 L 237.460938 361.867188 Z M 239.902344 359.59375 L 242.046875 358.9375 L 242.488281 360.371094 L 240.34375 361.03125 Z M 242.753906 358.714844 L 244.902344 358.015625 L 245.367188 359.445312 L 243.21875 360.140625 Z M 245.605469 357.78125 L 247.738281 357.050781 L 248.226562 358.46875 L 246.09375 359.199219 Z M 248.433594 356.804688 L 250.550781 356.035156 L 251.0625 357.445312 L 248.945312 358.214844 Z M 251.242188 355.78125 L 253.339844 354.976562 L 253.875 356.378906 L 251.777344 357.179688 Z M 254.027344 354.710938 L 256.109375 353.875 L 256.667969 355.269531 L 254.585938 356.101562 Z M 256.789062 353.597656 L 258.863281 352.726562 L 259.441406 354.109375 L 257.371094 354.980469 Z M 259.542969 352.433594 L 261.605469 351.523438 L 262.210938 352.898438 L 260.144531 353.808594 Z M 262.28125 351.222656 L 264.328125 350.28125 L 264.957031 351.644531 L 262.90625 352.585938 Z M 264.996094 349.964844 L 267.027344 348.992188 L 267.675781 350.34375 L 265.644531 351.316406 Z M 267.6875 348.667969 L 269.699219 347.660156 L 270.371094 349 L 268.359375 350.007812 Z M 270.351562 347.324219 L 272.34375 346.285156 L 273.039062 347.613281 L 271.046875 348.652344 Z M 272.992188 345.9375 L 274.96875 344.863281 L 275.6875 346.183594 L 273.710938 347.257812 Z M 275.617188 344.507812 L 277.578125 343.398438 L 278.316406 344.703125 L 276.355469 345.8125 Z M 278.21875 343.027344 L 280.164062 341.886719 L 280.921875 343.179688 L 278.980469 344.320312 Z M 280.796875 341.507812 L 282.71875 340.335938 L 283.496094 341.617188 L 281.578125 342.789062 Z M 283.34375 339.949219 L 285.242188 338.746094 L 286.046875 340.011719 L 284.144531 341.214844 Z M 285.863281 338.347656 L 287.742188 337.113281 L 288.566406 338.367188 L 286.6875 339.601562 Z M 288.355469 336.703125 L 290.214844 335.4375 L 291.058594 336.679688 L 289.199219 337.945312 Z M 290.824219 335.019531 L 292.664062 333.722656 L 293.53125 334.945312 L 291.6875 336.246094 Z M 293.265625 333.289062 L 295.085938 331.964844 L 295.96875 333.175781 L 294.148438 334.503906 Z M 295.675781 331.523438 L 297.472656 330.167969 L 298.375 331.363281 L 296.582031 332.71875 Z M 298.058594 329.71875 L 299.828125 328.332031 L 300.753906 329.515625 L 298.980469 330.898438 Z M 300.40625 327.875 L 302.15625 326.460938 L 303.097656 327.625 L 301.351562 329.039062 Z M 302.726562 325.992188 L 304.453125 324.546875 L 305.414062 325.699219 L 303.6875 327.144531 Z M 305.015625 324.070312 L 306.71875 322.597656 L 307.699219 323.730469 L 305.996094 325.203125 Z M 307.273438 322.109375 L 308.949219 320.609375 L 309.949219 321.730469 L 308.273438 323.230469 Z M 309.496094 320.113281 L 311.148438 318.585938 L 312.167969 319.6875 L 310.515625 321.214844 Z M 311.691406 318.078125 L 311.726562 318.042969 L 313.316406 316.527344 L 314.351562 317.613281 L 312.757812 319.136719 L 312.71875 319.167969 Z M 313.84375 316.015625 L 315.445312 314.433594 L 316.5 315.5 L 314.898438 317.082031 Z M 315.964844 313.910156 L 317.542969 312.304688 L 318.613281 313.355469 L 317.039062 314.960938 Z M 318.054688 311.773438 L 319.601562 310.140625 L 320.691406 311.171875 L 319.140625 312.804688 Z M 320.105469 309.601562 L 321.628906 307.941406 L 322.734375 308.957031 L 321.210938 310.613281 Z M 322.121094 307.394531 L 323.617188 305.710938 L 324.738281 306.707031 L 323.246094 308.390625 Z M 324.101562 305.15625 L 325.570312 303.449219 L 326.707031 304.425781 L 325.242188 306.132812 Z M 326.046875 302.882812 L 327.484375 301.152344 L 328.636719 302.109375 L 327.199219 303.84375 Z M 327.949219 300.582031 L 329.359375 298.828125 L 330.527344 299.765625 L 329.121094 301.519531 Z M 329.816406 298.25 L 331.195312 296.472656 L 332.378906 297.390625 L 331 299.167969 Z M 331.640625 295.886719 L 332.992188 294.085938 L 334.191406 294.984375 L 332.839844 296.785156 Z M 333.429688 293.492188 L 334.75 291.667969 L 335.964844 292.546875 L 334.644531 294.371094 Z M 335.179688 291.066406 L 336.472656 289.21875 L 337.699219 290.082031 L 336.410156 291.925781 Z M 336.890625 288.613281 L 338.148438 286.746094 L 339.390625 287.585938 L 338.132812 289.449219 Z M 338.554688 286.132812 L 339.78125 284.25 L 341.039062 285.070312 L 339.8125 286.953125 Z M 340.179688 283.628906 L 341.375 281.722656 L 342.644531 282.523438 L 341.449219 284.425781 Z M 341.761719 281.097656 L 342.929688 279.171875 L 344.210938 279.949219 L 343.046875 281.875 Z M 343.304688 278.535156 L 344.441406 276.589844 L 345.734375 277.34375 L 344.601562 279.292969 Z M 344.804688 275.949219 L 345.910156 273.980469 L 347.21875 274.714844 L 346.113281 276.683594 Z M 346.265625 273.332031 L 347.332031 271.355469 L 348.652344 272.066406 L 347.585938 274.046875 Z M 347.675781 270.707031 L 348.707031 268.710938 L 350.039062 269.398438 L 349.007812 271.394531 Z M 349.042969 268.054688 L 350.042969 266.039062 L 351.386719 266.707031 L 350.382812 268.722656 Z M 350.363281 265.375 L 351.332031 263.34375 L 352.6875 263.988281 L 351.71875 266.019531 Z M 351.644531 262.675781 L 352.578125 260.625 L 353.945312 261.246094 L 353.007812 263.296875 Z M 352.882812 259.949219 L 353.78125 257.878906 L 355.15625 258.480469 L 354.257812 260.546875 Z M 354.074219 257.199219 L 354.933594 255.128906 L 356.320312 255.703125 L 355.457031 257.773438 Z M 355.210938 254.445312 L 356.039062 252.359375 L 357.433594 252.914062 L 356.605469 255 Z M 356.304688 251.671875 L 357.101562 249.570312 L 358.503906 250.101562 L 357.710938 252.203125 Z M 357.355469 248.878906 L 358.117188 246.757812 L 359.527344 247.265625 L 358.765625 249.382812 Z M 358.359375 246.0625 L 359.085938 243.925781 L 360.503906 244.40625 L 359.777344 246.542969 Z M 359.316406 243.222656 L 360.007812 241.070312 L 361.4375 241.527344 L 360.746094 243.679688 Z M 360.230469 240.363281 L 360.878906 238.222656 L 362.3125 238.65625 L 361.664062 240.800781 Z M 361.085938 237.515625 L 361.699219 235.359375 L 363.140625 235.769531 L 362.527344 237.929688 Z M 361.894531 234.648438 L 362.476562 232.476562 L 363.925781 232.863281 L 363.34375 235.035156 Z M 362.660156 231.765625 L 363.203125 229.578125 L 364.660156 229.941406 L 364.113281 232.125 Z M 363.375 228.859375 L 363.886719 226.660156 L 365.347656 226.996094 L 364.839844 229.199219 Z M 364.046875 225.9375 L 364.519531 223.722656 L 365.988281 224.035156 L 365.511719 226.25 Z M 364.667969 223 L 365.097656 220.804688 L 366.570312 221.09375 L 366.140625 223.289062 Z M 365.234375 220.085938 L 365.628906 217.878906 L 367.105469 218.144531 L 366.710938 220.351562 Z M 365.753906 217.152344 L 366.113281 214.9375 L 367.59375 215.175781 L 367.234375 217.394531 Z M 366.226562 214.207031 L 366.550781 211.976562 L 368.035156 212.191406 L 367.710938 214.421875 Z M 366.648438 211.242188 L 366.9375 209.003906 L 368.425781 209.191406 L 368.136719 211.433594 Z M 367.023438 208.265625 L 367.277344 206.011719 L 368.765625 206.179688 L 368.515625 208.429688 Z M 367.351562 205.273438 L 367.5625 203.054688 L 369.054688 203.195312 L 368.84375 205.417969 Z M 367.625 202.324219 L 367.800781 200.09375 L 369.292969 200.210938 L 369.121094 202.441406 Z M 367.851562 199.359375 L 367.988281 197.117188 L 369.484375 197.210938 L 369.347656 199.453125 Z M 368.027344 196.382812 L 368.128906 194.132812 L 369.628906 194.199219 L 369.527344 196.449219 Z M 368.15625 193.390625 L 368.222656 191.132812 L 369.722656 191.175781 L 369.65625 193.433594 Z M 368.238281 190.390625 L 368.265625 188.121094 L 369.765625 188.140625 L 369.738281 190.40625 Z M 368.269531 187.371094 L 368.269531 186.976562 L 368.261719 185.101562 L 369.761719 185.09375 L 369.769531 186.976562 L 369.769531 187.371094 Z M 368.25 184.355469 L 368.203125 182.09375 L 369.703125 182.0625 L 369.75 184.328125 Z M 368.183594 181.351562 L 368.101562 179.09375 L 369.597656 179.039062 L 369.683594 181.296875 Z M 368.066406 178.355469 L 367.949219 176.109375 L 369.445312 176.03125 L 369.566406 178.277344 Z M 367.902344 175.375 L 367.746094 173.140625 L 369.242188 173.035156 L 369.398438 175.273438 Z M 367.6875 172.410156 L 367.496094 170.183594 L 368.992188 170.054688 L 369.183594 172.28125 Z M 367.429688 169.453125 L 367.199219 167.214844 L 368.691406 167.058594 L 368.921875 169.300781 Z M 367.117188 166.476562 L 366.847656 164.226562 L 368.335938 164.050781 L 368.605469 166.296875 Z M 366.753906 163.492188 L 366.449219 161.257812 L 367.933594 161.054688 L 368.238281 163.289062 Z M 366.339844 160.527344 L 366 158.300781 L 367.484375 158.074219 L 367.824219 160.296875 Z M 365.882812 157.574219 L 365.503906 155.363281 L 366.984375 155.109375 L 367.359375 157.320312 Z M 365.375 154.640625 L 364.964844 152.4375 L 366.4375 152.164062 L 366.851562 154.363281 Z M 364.820312 151.71875 L 364.371094 149.515625 L 365.839844 149.214844 L 366.292969 151.417969 Z M 364.214844 148.789062 L 363.722656 146.582031 L 365.1875 146.257812 L 365.679688 148.464844 Z M 363.558594 145.863281 L 363.03125 143.667969 L 364.488281 143.320312 L 365.015625 145.511719 Z M 362.851562 142.953125 L 362.292969 140.773438 L 363.742188 140.398438 L 364.304688 142.578125 Z M 362.101562 140.0625 L 361.503906 137.898438 L 362.949219 137.5 L 363.546875 139.664062 Z M 361.304688 137.191406 L 360.671875 135.039062 L 362.109375 134.617188 L 362.742188 136.765625 Z M 360.457031 134.335938 L 359.789062 132.1875 L 361.21875 131.742188 L 361.890625 133.890625 Z M 359.5625 131.484375 L 358.855469 129.339844 L 360.277344 128.867188 L 360.988281 131.011719 Z M 358.617188 128.636719 L 357.875 126.511719 L 359.289062 126.015625 L 360.03125 128.144531 Z M 357.625 125.816406 L 356.847656 123.703125 L 358.253906 123.1875 L 359.03125 125.296875 Z M 356.585938 123.015625 L 355.777344 120.917969 L 357.175781 120.378906 L 357.984375 122.472656 Z M 355.503906 120.234375 L 354.660156 118.15625 L 356.050781 117.59375 L 356.894531 119.671875 Z M 354.378906 117.476562 L 353.496094 115.40625 L 354.875 114.816406 L 355.757812 116.890625 Z M 353.199219 114.726562 L 352.28125 112.667969 L 353.652344 112.054688 L 354.570312 114.117188 Z M 351.976562 111.996094 L 351.023438 109.953125 L 352.382812 109.320312 L 353.335938 111.359375 Z M 350.707031 109.285156 L 349.722656 107.261719 L 351.070312 106.605469 L 352.054688 108.628906 Z M 349.394531 106.601562 L 348.378906 104.597656 L 349.714844 103.917969 L 350.730469 105.925781 Z M 348.039062 103.945312 L 346.992188 101.957031 L 348.316406 101.257812 L 349.367188 103.242188 Z M 346.640625 101.3125 L 345.554688 99.335938 L 346.871094 98.613281 L 347.957031 100.589844 Z M 345.195312 98.691406 L 344.078125 96.734375 L 345.378906 95.988281 L 346.496094 97.945312 Z M 343.703125 96.097656 L 342.554688 94.160156 L 343.84375 93.394531 L 344.996094 95.332031 Z M 342.171875 93.527344 L 340.992188 91.613281 L 342.269531 90.824219 L 343.449219 92.742188 Z M 340.601562 90.988281 L 339.390625 89.09375 L 340.652344 88.285156 L 341.863281 90.179688 Z M 338.988281 88.476562 L 337.746094 86.605469 L 338.996094 85.777344 L 340.238281 87.648438 Z M 337.332031 85.992188 L 336.058594 84.136719 L 337.292969 83.285156 L 338.570312 85.144531 Z M 335.632812 83.53125 L 334.328125 81.695312 L 335.550781 80.824219 L 336.855469 82.660156 Z M 333.894531 81.097656 L 332.558594 79.285156 L 333.765625 78.394531 L 335.101562 80.207031 Z M 332.117188 78.695312 L 330.753906 76.90625 L 331.945312 75.996094 L 333.308594 77.785156 Z M 330.300781 76.324219 L 328.90625 74.558594 L 330.085938 73.628906 L 331.476562 75.394531 Z M 328.445312 73.984375 L 327.023438 72.242188 L 328.183594 71.292969 L 329.605469 73.035156 Z M 326.550781 71.671875 L 325.097656 69.953125 L 326.246094 68.984375 L 327.699219 70.707031 Z M 324.617188 69.394531 L 323.136719 67.695312 L 324.269531 66.710938 L 325.75 68.40625 Z M 322.648438 67.144531 L 321.140625 65.472656 L 322.253906 64.46875 L 323.761719 66.140625 Z M 320.640625 64.929688 L 319.105469 63.285156 L 320.203125 62.261719 L 321.738281 63.90625 Z M 318.597656 62.75 L 317.035156 61.128906 L 318.117188 60.089844 L 319.679688 61.707031 Z M 316.519531 60.601562 L 315.292969 59.367188 L 314.933594 59.011719 L 315.992188 57.945312 L 316.355469 58.308594 L 317.582031 59.542969 Z M 314.40625 58.488281 L 312.792969 56.921875 L 313.835938 55.847656 L 315.453125 57.414062 Z M 312.257812 56.414062 L 310.617188 54.871094 L 311.644531 53.777344 L 313.285156 55.320312 Z M 310.078125 54.371094 L 308.410156 52.855469 L 309.421875 51.746094 L 311.085938 53.261719 Z M 307.863281 52.367188 L 306.171875 50.878906 L 307.160156 49.753906 L 308.851562 51.238281 Z M 305.613281 50.394531 L 303.898438 48.9375 L 304.871094 47.792969 L 306.585938 49.253906 Z M 303.332031 48.464844 L 301.59375 47.035156 L 302.546875 45.875 L 304.285156 47.304688 Z M 301.019531 46.570312 L 299.261719 45.171875 L 300.195312 43.996094 L 301.953125 45.398438 Z M 298.679688 44.71875 L 296.894531 43.347656 L 297.808594 42.15625 L 299.59375 43.527344 Z M 296.308594 42.902344 L 294.5 41.558594 L 295.394531 40.355469 L 297.203125 41.695312 Z M 293.902344 41.125 L 292.074219 39.8125 L 292.949219 38.59375 L 294.777344 39.90625 Z M 291.46875 39.386719 L 289.617188 38.105469 L 290.472656 36.871094 L 292.324219 38.152344 Z M 289.007812 37.6875 L 287.136719 36.4375 L 287.972656 35.191406 L 289.839844 36.441406 Z M 286.523438 36.035156 L 284.632812 34.816406 L 285.445312 33.554688 L 287.335938 34.773438 Z M 284.011719 34.421875 L 282.097656 33.234375 L 282.890625 31.960938 L 284.800781 33.148438 Z M 281.46875 32.851562 L 279.539062 31.695312 L 280.308594 30.40625 L 282.238281 31.5625 Z M 278.902344 31.320312 L 276.949219 30.195312 L 277.699219 28.894531 L 279.648438 30.019531 Z M 276.304688 29.832031 L 274.332031 28.738281 L 275.058594 27.425781 L 277.03125 28.519531 Z M 273.683594 28.386719 L 271.703125 27.332031 L 272.410156 26.007812 L 274.390625 27.0625 Z M 271.050781 26.988281 L 269.050781 25.964844 L 269.734375 24.632812 L 271.734375 25.65625 Z M 268.390625 25.636719 L 266.375 24.644531 L 267.035156 23.296875 L 269.054688 24.289062 Z M 265.707031 24.324219 L 263.671875 23.367188 L 264.308594 22.007812 L 266.347656 22.96875 Z M 263 23.058594 L 260.941406 22.132812 L 261.558594 20.765625 L 263.613281 21.691406 Z M 260.265625 21.835938 L 258.191406 20.941406 L 258.785156 19.5625 L 260.859375 20.457031 Z M 257.515625 20.65625 L 255.441406 19.804688 L 256.011719 18.417969 L 258.085938 19.269531 Z M 254.757812 19.53125 L 252.667969 18.714844 L 253.210938 17.316406 L 255.304688 18.136719 Z M 251.976562 18.449219 L 249.871094 17.667969 L 250.394531 16.261719 L 252.5 17.046875 Z M 249.175781 17.414062 L 247.050781 16.664062 L 247.550781 15.25 L 249.675781 16 Z M 246.351562 16.425781 L 244.210938 15.707031 L 244.6875 14.285156 L 246.828125 15 Z M 243.507812 15.480469 L 241.355469 14.800781 L 241.808594 13.367188 L 243.960938 14.050781 Z M 240.652344 14.585938 L 238.507812 13.945312 L 238.933594 12.507812 L 241.082031 13.144531 Z M 237.800781 13.742188 L 235.640625 13.136719 L 236.042969 11.691406 L 238.203125 12.296875 Z M 234.929688 12.945312 L 232.753906 12.375 L 233.132812 10.921875 L 235.308594 11.492188 Z M 232.035156 12.195312 L 229.847656 11.660156 L 230.203125 10.203125 L 232.390625 10.738281 Z M 229.125 11.488281 L 226.921875 10.992188 L 227.253906 9.527344 L 229.457031 10.027344 Z M 226.199219 10.832031 L 223.988281 10.371094 L 224.292969 8.902344 L 226.503906 9.367188 Z M 223.269531 10.230469 L 221.070312 9.808594 L 221.355469 8.335938 L 223.550781 8.753906 Z M 220.347656 9.675781 L 218.140625 9.289062 L 218.398438 7.8125 L 220.605469 8.199219 Z M 217.414062 9.171875 L 215.191406 8.820312 L 215.425781 7.339844 L 217.648438 7.6875 Z M 214.460938 8.710938 L 212.230469 8.398438 L 212.4375 6.914062 L 214.671875 7.226562 Z M 211.496094 8.300781 L 209.25 8.027344 L 209.433594 6.535156 L 211.679688 6.8125 Z M 208.511719 7.941406 L 206.261719 7.699219 L 206.417969 6.210938 L 208.671875 6.449219 Z M 205.535156 7.628906 L 203.308594 7.429688 L 203.445312 5.9375 L 205.667969 6.136719 Z M 202.578125 7.371094 L 200.34375 7.207031 L 200.453125 5.710938 L 202.6875 5.875 Z M 199.609375 7.160156 L 197.367188 7.03125 L 197.453125 5.535156 L 199.695312 5.660156 Z M 196.628906 6.996094 L 194.375 6.902344 L 194.4375 5.40625 L 196.691406 5.496094 Z M 193.636719 6.878906 L 191.371094 6.824219 L 191.410156 5.324219 L 193.671875 5.378906 Z M 190.628906 6.8125 L 188.355469 6.796875 L 188.367188 5.296875 L 190.640625 5.3125 Z M 188.09375 6.796875 L 185.820312 6.808594 L 185.8125 5.308594 L 188.085938 5.296875 Z M 188.09375 6.796875 " fill-opacity="1" fill-rule="nonzero"/></g></g><g mask="url(#77c12d2ae6)"><g transform="matrix(1, 0, 0, 1, 4, 3)"><g clip-path="url(#09663b212a)"><g clip-path="url(#739267f07f)"><g clip-path="url(#e42a4ac0d7)"><path fill="#09bbff" d="M 181.078125 7.222656 L 178.816406 7.277344 L 178.78125 5.777344 L 181.042969 5.722656 Z M 178.074219 7.296875 L 175.820312 7.386719 L 175.761719 5.890625 L 178.015625 5.800781 Z M 175.085938 7.425781 L 172.839844 7.550781 L 172.753906 6.054688 L 175 5.925781 Z M 172.105469 7.597656 L 169.871094 7.761719 L 169.761719 6.265625 L 171.996094 6.101562 Z M 169.140625 7.820312 L 166.917969 8.023438 L 166.785156 6.527344 L 169.007812 6.328125 Z M 166.191406 8.09375 L 163.9375 8.335938 L 163.777344 6.84375 L 166.03125 6.601562 Z M 163.203125 8.417969 L 160.957031 8.699219 L 160.773438 7.210938 L 163.015625 6.929688 Z M 160.222656 8.796875 L 157.992188 9.113281 L 157.78125 7.625 L 160.011719 7.3125 Z M 157.261719 9.222656 L 155.039062 9.574219 L 154.804688 8.09375 L 157.027344 7.738281 Z M 154.316406 9.695312 L 152.105469 10.085938 L 151.847656 8.605469 L 154.054688 8.21875 Z M 151.386719 10.21875 L 149.191406 10.644531 L 148.90625 9.171875 L 151.101562 8.746094 Z M 148.472656 10.789062 L 146.257812 11.257812 L 145.949219 9.789062 L 148.164062 9.320312 Z M 145.535156 11.414062 L 143.332031 11.917969 L 142.996094 10.457031 L 145.199219 9.953125 Z M 142.613281 12.089844 L 140.425781 12.632812 L 140.066406 11.175781 L 142.253906 10.636719 Z M 139.710938 12.816406 L 137.539062 13.390625 L 137.152344 11.941406 L 139.328125 11.367188 Z M 136.828125 13.585938 L 134.671875 14.199219 L 134.261719 12.757812 L 136.417969 12.144531 Z M 133.964844 14.40625 L 131.820312 15.054688 L 131.386719 13.617188 L 133.53125 12.96875 Z M 131.117188 15.273438 L 128.964844 15.960938 L 128.507812 14.535156 L 130.660156 13.84375 Z M 128.261719 16.195312 L 126.125 16.921875 L 125.644531 15.5 L 127.78125 14.773438 Z M 125.429688 17.164062 L 123.308594 17.925781 L 122.804688 16.511719 L 124.921875 15.75 Z M 122.617188 18.179688 L 120.515625 18.976562 L 119.984375 17.570312 L 122.085938 16.777344 Z M 119.828125 19.242188 L 117.742188 20.070312 L 117.1875 18.675781 L 119.273438 17.847656 Z M 117.0625 20.347656 L 114.992188 21.210938 L 114.414062 19.828125 L 116.484375 18.964844 Z M 114.3125 21.503906 L 112.242188 22.410156 L 111.640625 21.035156 L 113.710938 20.128906 Z M 111.570312 22.710938 L 109.519531 23.648438 L 108.894531 22.285156 L 110.945312 21.347656 Z M 108.851562 23.960938 L 106.820312 24.933594 L 106.175781 23.582031 L 108.203125 22.609375 Z M 106.160156 25.257812 L 104.148438 26.265625 L 103.476562 24.921875 L 105.488281 23.917969 Z M 103.492188 26.597656 L 101.5 27.636719 L 100.808594 26.308594 L 102.800781 25.269531 Z M 100.851562 27.980469 L 98.875 29.054688 L 98.160156 27.738281 L 100.136719 26.664062 Z M 98.226562 29.414062 L 96.265625 30.523438 L 95.527344 29.21875 L 97.488281 28.109375 Z M 95.625 30.890625 L 93.683594 32.03125 L 92.925781 30.738281 L 94.867188 29.597656 Z M 93.050781 32.410156 L 91.128906 33.585938 L 90.347656 32.304688 L 92.269531 31.132812 Z M 90.503906 33.972656 L 88.605469 35.179688 L 87.800781 33.910156 L 89.703125 32.707031 Z M 87.988281 35.578125 L 86.109375 36.8125 L 85.285156 35.558594 L 87.160156 34.324219 Z M 85.496094 37.222656 L 83.636719 38.492188 L 82.792969 37.253906 L 84.652344 35.984375 Z M 83.03125 38.914062 L 81.191406 40.214844 L 80.324219 38.992188 L 82.164062 37.691406 Z M 80.59375 40.648438 L 78.777344 41.976562 L 77.890625 40.769531 L 79.707031 39.4375 Z M 78.1875 42.417969 L 76.394531 43.78125 L 75.488281 42.585938 L 77.277344 41.222656 Z M 75.8125 44.230469 L 74.042969 45.621094 L 73.117188 44.441406 L 74.882812 43.050781 Z M 73.464844 46.082031 L 71.722656 47.5 L 70.777344 46.335938 L 72.519531 44.917969 Z M 71.152344 47.96875 L 69.433594 49.421875 L 68.464844 48.273438 L 70.1875 46.824219 Z M 68.871094 49.902344 L 67.175781 51.378906 L 66.1875 50.25 L 67.886719 48.769531 Z M 66.621094 51.867188 L 64.949219 53.375 L 63.945312 52.261719 L 65.617188 50.753906 Z M 64.40625 53.875 L 62.761719 55.410156 L 61.738281 54.3125 L 63.382812 52.777344 Z M 62.226562 55.917969 L 60.605469 57.476562 L 59.5625 56.398438 L 61.183594 54.835938 Z M 60.078125 57.996094 L 58.746094 59.316406 L 58.488281 59.582031 L 57.421875 58.523438 L 57.691406 58.253906 L 59.019531 56.929688 Z M 57.964844 60.109375 L 56.398438 61.722656 L 55.324219 60.679688 L 56.890625 59.0625 Z M 55.890625 62.257812 L 54.351562 63.898438 L 53.257812 62.871094 L 54.796875 61.230469 Z M 53.851562 64.441406 L 52.339844 66.109375 L 51.230469 65.101562 L 52.742188 63.433594 Z M 51.847656 66.660156 L 50.363281 68.351562 L 49.238281 67.363281 L 50.722656 65.671875 Z M 49.882812 68.910156 L 48.429688 70.628906 L 47.285156 69.660156 L 48.738281 67.941406 Z M 47.957031 71.195312 L 46.53125 72.9375 L 45.371094 71.984375 L 46.792969 70.246094 Z M 46.070312 73.511719 L 44.671875 75.273438 L 43.496094 74.34375 L 44.890625 72.578125 Z M 44.21875 75.855469 L 42.855469 77.644531 L 41.664062 76.734375 L 43.027344 74.945312 Z M 42.410156 78.234375 L 41.074219 80.046875 L 39.867188 79.15625 L 41.203125 77.34375 Z M 40.640625 80.640625 L 39.335938 82.476562 L 38.113281 81.605469 L 39.421875 79.773438 Z M 38.914062 83.082031 L 37.636719 84.941406 L 36.402344 84.089844 L 37.675781 82.234375 Z M 37.226562 85.550781 L 35.984375 87.425781 L 34.734375 86.59375 L 35.972656 84.722656 Z M 35.582031 88.042969 L 34.371094 89.9375 L 33.109375 89.128906 L 34.316406 87.234375 Z M 33.980469 90.5625 L 32.804688 92.476562 L 31.523438 91.691406 L 32.703125 89.777344 Z M 32.421875 93.109375 L 31.273438 95.046875 L 29.984375 94.285156 L 31.132812 92.347656 Z M 30.902344 95.6875 L 29.789062 97.644531 L 28.484375 96.902344 L 29.601562 94.945312 Z M 29.429688 98.289062 L 28.347656 100.265625 L 27.03125 99.546875 L 28.113281 97.570312 Z M 28 100.914062 L 26.957031 102.902344 L 25.628906 102.207031 L 26.671875 100.21875 Z M 26.621094 103.558594 L 25.609375 105.566406 L 24.269531 104.890625 L 25.28125 102.882812 Z M 25.285156 106.226562 L 24.304688 108.253906 L 22.953125 107.601562 L 23.933594 105.574219 Z M 23.988281 108.921875 L 23.046875 110.964844 L 21.683594 110.335938 L 22.628906 108.292969 Z M 22.742188 111.640625 L 21.832031 113.703125 L 20.457031 113.097656 L 21.367188 111.035156 Z M 21.539062 114.382812 L 20.664062 116.453125 L 19.28125 115.871094 L 20.15625 113.800781 Z M 20.386719 117.132812 L 19.550781 119.214844 L 18.15625 118.65625 L 18.992188 116.574219 Z M 19.28125 119.902344 L 18.480469 122 L 17.078125 121.46875 L 17.878906 119.367188 Z M 18.222656 122.691406 L 17.457031 124.808594 L 16.046875 124.296875 L 16.8125 122.183594 Z M 17.210938 125.503906 L 16.476562 127.640625 L 15.058594 127.152344 L 15.792969 125.019531 Z M 16.242188 128.339844 L 15.546875 130.488281 L 14.121094 130.027344 L 14.816406 127.878906 Z M 15.324219 131.195312 L 14.671875 133.339844 L 13.234375 132.902344 L 13.890625 130.757812 Z M 14.460938 134.042969 L 13.84375 136.199219 L 12.402344 135.785156 L 13.019531 133.628906 Z M 13.644531 136.90625 L 13.0625 139.078125 L 11.613281 138.6875 L 12.199219 136.519531 Z M 12.878906 139.792969 L 12.332031 141.976562 L 10.875 141.613281 L 11.421875 139.425781 Z M 12.15625 142.695312 L 11.644531 144.894531 L 10.183594 144.554688 L 10.695312 142.355469 Z M 11.484375 145.617188 L 11.011719 147.828125 L 9.542969 147.515625 L 10.019531 145.300781 Z M 10.859375 148.554688 L 10.429688 150.746094 L 8.957031 150.457031 L 9.390625 148.265625 Z M 10.292969 151.46875 L 9.898438 153.675781 L 8.421875 153.410156 L 8.816406 151.203125 Z M 9.773438 154.398438 L 9.414062 156.617188 L 7.933594 156.378906 L 8.292969 154.160156 Z M 9.304688 157.347656 L 8.980469 159.578125 L 7.496094 159.363281 L 7.820312 157.132812 Z M 8.882812 160.308594 L 8.597656 162.550781 L 7.109375 162.363281 L 7.394531 160.121094 Z M 8.507812 163.289062 L 8.261719 165.542969 L 6.769531 165.378906 L 7.019531 163.125 Z M 8.1875 166.273438 L 7.980469 168.496094 L 6.484375 168.359375 L 6.691406 166.136719 Z M 7.917969 169.226562 L 7.746094 171.460938 L 6.25 171.34375 L 6.421875 169.113281 Z M 7.699219 172.191406 L 7.5625 174.433594 L 6.066406 174.347656 L 6.199219 172.101562 Z M 7.527344 175.171875 L 7.429688 177.421875 L 5.933594 177.359375 L 6.027344 175.109375 Z M 7.40625 178.164062 L 7.347656 180.425781 L 5.847656 180.386719 L 5.90625 178.125 Z M 7.332031 181.167969 L 7.3125 183.4375 L 5.8125 183.425781 L 5.832031 181.152344 Z M 7.3125 184.183594 L 7.328125 186.457031 L 5.828125 186.46875 L 5.8125 184.195312 Z M 7.339844 187.199219 L 7.394531 189.464844 L 5.894531 189.5 L 5.839844 187.238281 Z M 7.417969 190.203125 L 7.511719 192.457031 L 6.011719 192.519531 L 5.917969 190.265625 Z M 7.546875 193.191406 L 7.675781 195.4375 L 6.179688 195.523438 L 6.050781 193.28125 Z M 7.726562 196.171875 L 7.890625 198.402344 L 6.394531 198.515625 L 6.230469 196.28125 Z M 7.953125 199.132812 L 8.15625 201.355469 L 6.660156 201.492188 L 6.457031 199.269531 Z M 8.226562 202.085938 L 8.472656 204.339844 L 6.980469 204.5 L 6.734375 202.246094 Z M 8.558594 205.078125 L 8.839844 207.320312 L 7.351562 207.507812 L 7.070312 205.261719 Z M 8.9375 208.054688 L 9.253906 210.285156 L 7.769531 210.496094 L 7.453125 208.265625 Z M 9.367188 211.015625 L 9.71875 213.234375 L 8.238281 213.472656 L 7.882812 211.25 Z M 9.84375 213.960938 L 10.234375 216.167969 L 8.757812 216.429688 L 8.367188 214.222656 Z M 10.367188 216.886719 L 10.796875 219.082031 L 9.324219 219.371094 L 8.894531 217.175781 Z M 10.941406 219.800781 L 11.414062 222.015625 L 9.945312 222.328125 L 9.476562 220.113281 Z M 11.574219 222.738281 L 12.082031 224.941406 L 10.621094 225.277344 L 10.113281 223.078125 Z M 12.253906 225.660156 L 12.796875 227.847656 L 11.339844 228.207031 L 10.796875 226.019531 Z M 12.980469 228.558594 L 13.558594 230.730469 L 12.109375 231.117188 L 11.53125 228.945312 Z M 13.753906 231.441406 L 14.371094 233.597656 L 12.925781 234.011719 L 12.3125 231.851562 Z M 14.578125 234.304688 L 15.226562 236.445312 L 13.792969 236.882812 L 13.140625 234.738281 Z M 15.449219 237.152344 L 16.140625 239.304688 L 14.714844 239.761719 L 14.019531 237.613281 Z M 16.375 240.003906 L 17.101562 242.140625 L 15.683594 242.625 L 14.953125 240.488281 Z M 17.347656 242.835938 L 18.109375 244.957031 L 16.699219 245.464844 L 15.933594 243.34375 Z M 18.363281 245.648438 L 19.164062 247.75 L 17.761719 248.28125 L 16.960938 246.179688 Z M 19.429688 248.433594 L 20.261719 250.519531 L 18.867188 251.074219 L 18.035156 248.992188 Z M 20.539062 251.199219 L 21.40625 253.269531 L 20.023438 253.851562 L 19.15625 251.777344 Z M 21.699219 253.949219 L 22.605469 256.015625 L 21.234375 256.621094 L 20.324219 254.554688 Z M 22.910156 256.691406 L 23.851562 258.738281 L 22.488281 259.363281 L 21.546875 257.316406 Z M 24.164062 259.40625 L 25.140625 261.433594 L 23.785156 262.085938 L 22.8125 260.054688 Z M 25.464844 262.097656 L 26.472656 264.105469 L 25.128906 264.777344 L 24.121094 262.769531 Z M 26.808594 264.761719 L 27.847656 266.753906 L 26.519531 267.445312 L 25.476562 265.457031 Z M 28.195312 267.402344 L 29.269531 269.378906 L 27.953125 270.09375 L 26.875 268.117188 Z M 29.628906 270.023438 L 30.738281 271.984375 L 29.433594 272.722656 L 28.324219 270.761719 Z M 31.109375 272.625 L 32.253906 274.566406 L 30.960938 275.328125 L 29.816406 273.386719 Z M 32.632812 275.195312 L 33.808594 277.117188 L 32.527344 277.898438 L 31.355469 275.980469 Z M 34.199219 277.742188 L 35.40625 279.640625 L 34.136719 280.445312 L 32.933594 278.546875 Z M 35.804688 280.257812 L 37.042969 282.132812 L 35.789062 282.960938 L 34.554688 281.082031 Z M 37.453125 282.742188 L 38.726562 284.605469 L 37.488281 285.449219 L 36.214844 283.589844 Z M 39.148438 285.210938 L 40.449219 287.046875 L 39.226562 287.914062 L 37.921875 286.078125 Z M 40.882812 287.644531 L 42.214844 289.460938 L 41.007812 290.347656 L 39.671875 288.535156 Z M 42.65625 290.050781 L 44.019531 291.839844 L 42.828125 292.75 L 41.464844 290.957031 Z M 44.472656 292.421875 L 45.863281 294.191406 L 44.683594 295.117188 L 43.292969 293.351562 Z M 46.324219 294.765625 L 47.746094 296.507812 L 46.582031 297.457031 L 45.164062 295.714844 Z M 48.21875 297.074219 L 49.667969 298.796875 L 48.523438 299.765625 L 47.070312 298.042969 Z M 50.148438 299.355469 L 51.632812 301.050781 L 50.5 302.039062 L 49.019531 300.34375 Z M 52.121094 301.601562 L 53.628906 303.273438 L 52.515625 304.277344 L 51.007812 302.609375 Z M 54.128906 303.816406 L 55.664062 305.460938 L 54.570312 306.484375 L 53.03125 304.839844 Z M 56.171875 305.996094 L 57.4375 307.308594 L 57.734375 307.609375 L 56.660156 308.660156 L 56.359375 308.347656 L 55.09375 307.039062 Z M 58.253906 308.140625 L 58.910156 308.800781 L 59.84375 309.730469 L 58.785156 310.792969 L 57.84375 309.855469 L 57.191406 309.199219 Z M 60.371094 310.25 L 61.988281 311.8125 L 60.945312 312.890625 L 59.328125 311.328125 Z M 62.519531 312.320312 L 64.164062 313.859375 L 63.140625 314.953125 L 61.496094 313.417969 Z M 64.707031 314.359375 L 66.375 315.867188 L 65.371094 316.980469 L 63.703125 315.472656 Z M 66.929688 316.359375 L 68.621094 317.839844 L 67.636719 318.96875 L 65.941406 317.488281 Z M 69.183594 318.320312 L 70.902344 319.773438 L 69.933594 320.921875 L 68.214844 319.46875 Z M 71.46875 320.246094 L 73.210938 321.667969 L 72.261719 322.832031 L 70.519531 321.410156 Z M 73.785156 322.132812 L 75.550781 323.523438 L 74.621094 324.703125 L 72.855469 323.308594 Z M 76.132812 323.976562 L 77.921875 325.339844 L 77.015625 326.53125 L 75.226562 325.167969 Z M 78.515625 325.78125 L 80.328125 327.117188 L 79.4375 328.324219 L 77.625 326.992188 Z M 80.925781 327.550781 L 82.761719 328.851562 L 81.894531 330.074219 L 80.054688 328.773438 Z M 83.367188 329.277344 L 85.226562 330.550781 L 84.378906 331.785156 L 82.519531 330.511719 Z M 85.835938 330.960938 L 87.710938 332.199219 L 86.886719 333.449219 L 85.011719 332.210938 Z M 88.328125 332.601562 L 90.226562 333.808594 L 89.421875 335.074219 L 87.523438 333.863281 Z M 90.851562 334.199219 L 92.769531 335.375 L 91.984375 336.652344 L 90.066406 335.476562 Z M 93.402344 335.753906 L 95.339844 336.898438 L 94.578125 338.191406 L 92.640625 337.046875 Z M 95.980469 337.269531 L 97.941406 338.382812 L 97.199219 339.6875 L 95.238281 338.574219 Z M 98.585938 338.742188 L 100.5625 339.820312 L 99.84375 341.136719 L 97.867188 340.058594 Z M 101.210938 340.164062 L 103.203125 341.207031 L 102.503906 342.535156 L 100.515625 341.496094 Z M 103.855469 341.542969 L 105.867188 342.550781 L 105.191406 343.894531 L 103.183594 342.882812 Z M 106.527344 342.878906 L 108.554688 343.851562 L 107.90625 345.207031 L 105.875 344.230469 Z M 109.222656 344.167969 L 111.269531 345.109375 L 110.640625 346.472656 L 108.59375 345.53125 Z M 111.941406 345.414062 L 114.007812 346.320312 L 113.40625 347.695312 L 111.339844 346.785156 Z M 114.6875 346.613281 L 116.761719 347.484375 L 116.179688 348.867188 L 114.109375 347.996094 Z M 117.441406 347.761719 L 119.523438 348.59375 L 118.96875 349.988281 L 116.882812 349.15625 Z M 120.210938 348.863281 L 122.308594 349.664062 L 121.777344 351.0625 L 119.675781 350.265625 Z M 123 349.917969 L 125.121094 350.683594 L 124.609375 352.09375 L 122.492188 351.328125 Z M 125.816406 350.929688 L 127.949219 351.65625 L 127.464844 353.078125 L 125.332031 352.347656 Z M 128.652344 351.890625 L 130.804688 352.585938 L 130.34375 354.011719 L 128.191406 353.316406 Z M 131.511719 352.804688 L 133.652344 353.457031 L 133.214844 354.894531 L 131.074219 354.242188 Z M 134.355469 353.664062 L 136.511719 354.28125 L 136.101562 355.722656 L 133.945312 355.109375 Z M 137.222656 354.476562 L 139.394531 355.058594 L 139.007812 356.507812 L 136.835938 355.925781 Z M 140.109375 355.242188 L 142.292969 355.789062 L 141.929688 357.242188 L 139.746094 356.699219 Z M 143.011719 355.960938 L 145.210938 356.46875 L 144.875 357.929688 L 142.675781 357.421875 Z M 145.933594 356.628906 L 148.148438 357.101562 L 147.835938 358.570312 L 145.621094 358.097656 Z M 148.871094 357.25 L 151.066406 357.679688 L 150.777344 359.148438 L 148.582031 358.722656 Z M 151.785156 357.8125 L 153.992188 358.207031 L 153.730469 359.683594 L 151.523438 359.289062 Z M 154.71875 358.328125 L 156.9375 358.683594 L 156.699219 360.167969 L 154.480469 359.808594 Z M 157.664062 358.796875 L 159.898438 359.117188 L 159.683594 360.601562 L 157.453125 360.28125 Z M 160.628906 359.214844 L 162.875 359.496094 L 162.6875 360.984375 L 160.441406 360.703125 Z M 163.609375 359.585938 L 165.863281 359.828125 L 165.703125 361.320312 L 163.449219 361.074219 Z M 166.59375 359.902344 L 168.816406 360.105469 L 168.679688 361.601562 L 166.457031 361.398438 Z M 169.546875 360.167969 L 171.78125 360.335938 L 171.667969 361.832031 L 169.433594 361.664062 Z M 172.511719 360.382812 L 174.757812 360.515625 L 174.667969 362.011719 L 172.425781 361.882812 Z M 175.492188 360.550781 L 177.746094 360.644531 L 177.683594 362.144531 L 175.429688 362.050781 Z M 178.484375 360.671875 L 180.75 360.726562 L 180.710938 362.226562 L 178.449219 362.171875 Z M 181.492188 360.738281 L 183.761719 360.757812 L 183.75 362.257812 L 181.480469 362.238281 Z M 184.507812 360.757812 L 186.78125 360.738281 L 186.792969 362.238281 L 184.523438 362.257812 Z M 187.523438 360.726562 L 189.785156 360.667969 L 189.824219 362.167969 L 187.5625 362.222656 Z M 190.527344 360.644531 L 192.777344 360.546875 L 192.839844 362.046875 L 190.589844 362.140625 Z M 193.515625 360.511719 L 195.757812 360.378906 L 195.847656 361.875 L 193.601562 362.007812 Z M 196.492188 360.328125 L 198.722656 360.160156 L 198.835938 361.65625 L 196.605469 361.824219 Z M 199.453125 360.097656 L 201.675781 359.894531 L 201.8125 361.386719 L 199.59375 361.59375 Z M 202.40625 359.820312 L 204.660156 359.574219 L 204.824219 361.066406 L 202.570312 361.3125 Z M 205.398438 359.488281 L 207.640625 359.203125 L 207.828125 360.691406 L 205.585938 360.976562 Z M 208.375 359.105469 L 210.605469 358.78125 L 210.816406 360.265625 L 208.585938 360.589844 Z M 211.332031 358.671875 L 213.550781 358.3125 L 213.792969 359.792969 L 211.574219 360.152344 Z M 214.277344 358.191406 L 216.484375 357.796875 L 216.746094 359.273438 L 214.542969 359.667969 Z M 217.203125 357.660156 L 219.398438 357.230469 L 219.6875 358.703125 L 217.492188 359.132812 Z M 220.121094 357.082031 L 222.335938 356.609375 L 222.648438 358.078125 L 220.433594 358.550781 Z M 223.058594 356.449219 L 225.257812 355.9375 L 225.597656 357.402344 L 223.394531 357.910156 Z M 225.976562 355.765625 L 228.160156 355.21875 L 228.523438 356.675781 L 226.339844 357.222656 Z M 228.875 355.035156 L 231.046875 354.453125 L 231.433594 355.902344 L 229.261719 356.484375 Z M 231.753906 354.257812 L 233.910156 353.640625 L 234.324219 355.082031 L 232.167969 355.699219 Z M 234.617188 353.433594 L 236.757812 352.78125 L 237.195312 354.214844 L 235.050781 354.867188 Z M 237.464844 352.558594 L 239.613281 351.863281 L 240.078125 353.289062 L 237.925781 353.984375 Z M 240.316406 351.628906 L 242.449219 350.898438 L 242.9375 352.316406 L 240.800781 353.046875 Z M 243.148438 350.652344 L 245.265625 349.886719 L 245.773438 351.296875 L 243.65625 352.0625 Z M 245.957031 349.628906 L 248.054688 348.832031 L 248.589844 350.230469 L 246.488281 351.03125 Z M 248.742188 348.5625 L 250.824219 347.726562 L 251.382812 349.121094 L 249.300781 349.957031 Z M 251.503906 347.449219 L 253.574219 346.578125 L 254.15625 347.960938 L 252.085938 348.832031 Z M 254.253906 346.285156 L 256.320312 345.375 L 256.925781 346.75 L 254.859375 347.660156 Z M 256.996094 345.074219 L 259.039062 344.128906 L 259.667969 345.492188 L 257.621094 346.433594 Z M 259.707031 343.816406 L 261.734375 342.839844 L 262.386719 344.1875 L 260.359375 345.167969 Z M 262.398438 342.511719 L 264.40625 341.503906 L 265.078125 342.84375 L 263.070312 343.851562 Z M 265.058594 341.167969 L 267.050781 340.125 L 267.746094 341.453125 L 265.757812 342.496094 Z M 267.699219 339.777344 L 269.675781 338.699219 L 270.394531 340.015625 L 268.417969 341.09375 Z M 270.320312 338.335938 L 272.277344 337.222656 L 273.019531 338.527344 L 271.0625 339.640625 Z M 272.917969 336.855469 L 274.855469 335.707031 L 275.621094 337 L 273.679688 338.144531 Z M 275.488281 335.328125 L 277.40625 334.152344 L 278.191406 335.429688 L 276.273438 336.605469 Z M 278.03125 333.757812 L 279.925781 332.550781 L 280.734375 333.816406 L 278.835938 335.023438 Z M 280.546875 332.148438 L 282.417969 330.910156 L 283.246094 332.160156 L 281.371094 333.402344 Z M 283.03125 330.5 L 284.886719 329.222656 L 285.738281 330.460938 L 283.878906 331.734375 Z M 285.492188 328.800781 L 287.328125 327.496094 L 288.199219 328.71875 L 286.363281 330.023438 Z M 287.925781 327.0625 L 289.738281 325.726562 L 290.628906 326.9375 L 288.816406 328.269531 Z M 290.328125 325.285156 L 292.117188 323.921875 L 293.027344 325.113281 L 291.238281 326.476562 Z M 292.699219 323.46875 L 294.464844 322.074219 L 295.394531 323.25 L 293.632812 324.644531 Z M 295.039062 321.613281 L 296.78125 320.1875 L 297.730469 321.351562 L 295.988281 322.773438 Z M 297.347656 319.71875 L 299.066406 318.261719 L 300.035156 319.40625 L 298.316406 320.863281 Z M 299.628906 317.78125 L 301.320312 316.300781 L 302.308594 317.425781 L 300.613281 318.910156 Z M 301.871094 315.808594 L 303.539062 314.296875 L 304.546875 315.410156 L 302.878906 316.921875 Z M 304.082031 313.796875 L 305.726562 312.257812 L 306.75 313.355469 L 305.109375 314.894531 Z M 306.257812 311.75 L 307.875 310.183594 L 308.917969 311.261719 L 307.304688 312.828125 Z M 308.402344 309.667969 L 309.515625 308.558594 L 309.988281 308.078125 L 311.054688 309.132812 L 310.574219 309.617188 L 309.460938 310.730469 Z M 310.507812 307.550781 L 312.070312 305.929688 L 313.148438 306.972656 L 311.585938 308.589844 Z M 312.578125 305.394531 L 314.113281 303.75 L 315.210938 304.773438 L 313.675781 306.417969 Z M 314.613281 303.207031 L 316.121094 301.535156 L 317.234375 302.539062 L 315.726562 304.210938 Z M 316.609375 300.984375 L 318.089844 299.289062 L 319.21875 300.273438 L 317.742188 301.96875 Z M 318.570312 298.726562 L 320.023438 297.007812 L 321.167969 297.972656 L 319.71875 299.695312 Z M 320.492188 296.4375 L 321.914062 294.695312 L 323.074219 295.640625 L 321.65625 297.386719 Z M 322.375 294.121094 L 323.765625 292.351562 L 324.945312 293.28125 L 323.550781 295.046875 Z M 324.214844 291.769531 L 325.578125 289.976562 L 326.773438 290.886719 L 325.410156 292.675781 Z M 326.019531 289.386719 L 327.351562 287.570312 L 328.5625 288.460938 L 327.230469 290.273438 Z M 327.785156 286.972656 L 329.085938 285.136719 L 330.308594 286.003906 L 329.007812 287.839844 Z M 329.507812 284.53125 L 330.777344 282.667969 L 332.015625 283.515625 L 330.746094 285.375 Z M 331.1875 282.058594 L 332.425781 280.183594 L 333.679688 281.007812 L 332.441406 282.882812 Z M 332.824219 279.5625 L 334.03125 277.664062 L 335.296875 278.46875 L 334.09375 280.367188 Z M 334.421875 277.039062 L 335.59375 275.121094 L 336.875 275.902344 L 335.699219 277.824219 Z M 335.976562 274.488281 L 337.117188 272.546875 L 338.410156 273.308594 L 337.265625 275.25 Z M 337.484375 271.90625 L 338.597656 269.945312 L 339.902344 270.683594 L 338.792969 272.644531 Z M 338.957031 269.300781 L 340.03125 267.320312 L 341.347656 268.039062 L 340.273438 270.015625 Z M 340.375 266.671875 L 341.414062 264.683594 L 342.746094 265.375 L 341.707031 267.367188 Z M 341.75 264.027344 L 342.757812 262.015625 L 344.097656 262.6875 L 343.09375 264.699219 Z M 343.082031 261.355469 L 344.054688 259.324219 L 345.40625 259.972656 L 344.433594 262.003906 Z M 344.367188 258.65625 L 345.308594 256.609375 L 346.671875 257.234375 L 345.730469 259.28125 Z M 345.613281 255.933594 L 346.519531 253.867188 L 347.890625 254.46875 L 346.984375 256.535156 Z M 346.808594 253.1875 L 347.675781 251.117188 L 349.058594 251.695312 L 348.191406 253.765625 Z M 347.953125 250.4375 L 348.785156 248.351562 L 350.179688 248.90625 L 349.347656 250.992188 Z M 349.050781 247.664062 L 349.847656 245.5625 L 351.25 246.09375 L 350.453125 248.195312 Z M 350.101562 244.871094 L 350.867188 242.75 L 352.277344 243.257812 L 351.515625 245.378906 Z M 351.109375 242.054688 L 351.835938 239.917969 L 353.257812 240.402344 L 352.53125 242.539062 Z M 352.070312 239.21875 L 352.761719 237.066406 L 354.1875 237.523438 L 353.496094 239.675781 Z M 352.980469 236.359375 L 353.628906 234.21875 L 355.066406 234.652344 L 354.417969 236.792969 Z M 353.835938 233.511719 L 354.449219 231.355469 L 355.894531 231.765625 L 355.28125 233.921875 Z M 354.644531 230.644531 L 355.222656 228.472656 L 356.671875 228.859375 L 356.09375 231.03125 Z M 355.40625 227.757812 L 355.949219 225.570312 L 357.40625 225.933594 L 356.863281 228.121094 Z M 356.121094 224.851562 L 356.628906 222.652344 L 358.089844 222.988281 L 357.582031 225.1875 Z M 356.789062 221.929688 L 357.257812 219.714844 L 358.722656 220.023438 L 358.253906 222.238281 Z M 357.402344 218.996094 L 357.828125 216.800781 L 359.300781 217.085938 L 358.875 219.28125 Z M 357.964844 216.078125 L 358.355469 213.871094 L 359.832031 214.132812 L 359.441406 216.339844 Z M 358.476562 213.144531 L 358.828125 210.925781 L 360.3125 211.160156 L 359.957031 213.382812 Z M 358.941406 210.195312 L 359.257812 207.964844 L 360.742188 208.175781 L 360.425781 210.40625 Z M 359.355469 207.230469 L 359.636719 204.988281 L 361.125 205.171875 L 360.84375 207.417969 Z M 359.722656 204.25 L 359.964844 201.996094 L 361.453125 202.15625 L 361.210938 204.410156 Z M 360.035156 201.269531 L 360.238281 199.046875 L 361.730469 199.179688 L 361.53125 201.402344 Z M 360.296875 198.316406 L 360.460938 196.082031 L 361.957031 196.191406 L 361.792969 198.425781 Z M 360.511719 195.347656 L 360.640625 193.101562 L 362.136719 193.1875 L 362.007812 195.433594 Z M 360.675781 192.367188 L 360.765625 190.113281 L 362.265625 190.171875 L 362.171875 192.425781 Z M 360.789062 189.371094 L 360.84375 187.109375 L 362.34375 187.144531 L 362.289062 189.40625 Z M 360.855469 186.367188 L 360.871094 184.09375 L 362.371094 184.105469 L 362.355469 186.375 Z M 360.871094 183.347656 L 360.847656 181.078125 L 362.347656 181.0625 L 362.367188 183.332031 Z M 360.832031 180.335938 L 360.773438 178.074219 L 362.273438 178.035156 L 362.332031 180.292969 Z M 360.746094 177.332031 L 360.648438 175.082031 L 362.148438 175.015625 L 362.246094 177.269531 Z M 360.613281 174.34375 L 360.476562 172.101562 L 361.976562 172.011719 L 362.109375 174.253906 Z M 360.425781 171.371094 L 360.257812 169.136719 L 361.75 169.023438 L 361.921875 171.253906 Z M 360.195312 168.40625 L 359.984375 166.1875 L 361.480469 166.046875 L 361.6875 168.269531 Z M 359.910156 165.453125 L 359.660156 163.199219 L 361.152344 163.035156 L 361.402344 165.285156 Z M 359.574219 162.460938 L 359.289062 160.21875 L 360.777344 160.03125 L 361.0625 162.273438 Z M 359.1875 159.488281 L 358.863281 157.257812 L 360.347656 157.042969 L 360.671875 159.273438 Z M 358.753906 156.527344 L 358.390625 154.308594 L 359.871094 154.070312 L 360.234375 156.289062 Z M 358.269531 153.585938 L 357.871094 151.378906 L 359.347656 151.113281 L 359.742188 153.320312 Z M 357.734375 150.660156 L 357.300781 148.464844 L 358.773438 148.175781 L 359.207031 150.371094 Z M 357.152344 147.742188 L 356.675781 145.527344 L 358.144531 145.214844 L 358.621094 147.425781 Z M 356.515625 144.804688 L 356.003906 142.609375 L 357.464844 142.265625 L 357.976562 144.464844 Z M 355.828125 141.890625 L 355.28125 139.703125 L 356.734375 139.339844 L 357.285156 141.523438 Z M 355.09375 138.992188 L 354.511719 136.820312 L 355.960938 136.429688 L 356.542969 138.601562 Z M 354.3125 136.113281 L 353.695312 133.957031 L 355.136719 133.542969 L 355.753906 135.699219 Z M 353.484375 133.253906 L 352.828125 131.109375 L 354.265625 130.671875 L 354.917969 132.816406 Z M 352.605469 130.402344 L 351.910156 128.253906 L 353.335938 127.792969 L 354.035156 129.941406 Z M 351.675781 127.554688 L 350.941406 125.421875 L 352.359375 124.933594 L 353.09375 127.066406 Z M 350.695312 124.722656 L 349.925781 122.609375 L 351.335938 122.097656 L 352.105469 124.210938 Z M 349.671875 121.917969 L 348.867188 119.816406 L 350.269531 119.28125 L 351.070312 121.382812 Z M 348.597656 119.132812 L 347.761719 117.050781 L 349.152344 116.492188 L 349.992188 118.574219 Z M 347.480469 116.371094 L 346.609375 114.300781 L 347.992188 113.71875 L 348.863281 115.789062 Z M 346.316406 113.621094 L 345.402344 111.558594 L 346.773438 110.949219 L 347.6875 113.015625 Z M 345.097656 110.882812 L 344.152344 108.839844 L 345.515625 108.210938 L 346.460938 110.253906 Z M 343.835938 108.171875 L 342.859375 106.144531 L 344.210938 105.492188 L 345.1875 107.519531 Z M 342.53125 105.484375 L 341.519531 103.476562 L 342.859375 102.800781 L 343.871094 104.808594 Z M 341.183594 102.824219 L 340.136719 100.835938 L 341.464844 100.136719 L 342.511719 102.125 Z M 339.789062 100.1875 L 338.707031 98.210938 L 340.023438 97.492188 L 341.105469 99.46875 Z M 338.347656 97.566406 L 337.230469 95.609375 L 338.535156 94.867188 L 339.652344 96.824219 Z M 336.859375 94.96875 L 335.714844 93.03125 L 337.003906 92.269531 L 338.152344 94.207031 Z M 335.332031 92.402344 L 334.152344 90.484375 L 335.429688 89.699219 L 336.609375 91.613281 Z M 333.761719 89.859375 L 332.550781 87.964844 L 333.8125 87.160156 L 335.023438 89.054688 Z M 332.148438 87.347656 L 330.90625 85.476562 L 332.15625 84.648438 L 333.398438 86.519531 Z M 330.492188 84.863281 L 329.21875 83.007812 L 330.453125 82.160156 L 331.730469 84.015625 Z M 328.792969 82.402344 L 327.488281 80.570312 L 328.707031 79.699219 L 330.015625 81.53125 Z M 327.054688 79.972656 L 325.714844 78.160156 L 326.921875 77.269531 L 328.257812 79.082031 Z M 325.273438 77.570312 L 323.90625 75.785156 L 325.097656 74.875 L 326.464844 76.660156 Z M 323.453125 75.203125 L 322.054688 73.441406 L 323.234375 72.507812 L 324.628906 74.273438 Z M 321.59375 72.867188 L 320.167969 71.125 L 321.328125 70.175781 L 322.753906 71.914062 Z M 319.695312 70.558594 L 318.238281 68.84375 L 319.382812 67.871094 L 320.839844 69.589844 Z M 317.757812 68.285156 L 316.273438 66.589844 L 317.398438 65.601562 L 318.886719 67.292969 Z M 315.78125 66.042969 L 314.269531 64.375 L 315.378906 63.367188 L 316.890625 65.03125 Z M 313.769531 63.832031 L 312.226562 62.191406 L 313.320312 61.164062 L 314.863281 62.804688 Z M 311.71875 61.660156 L 310.152344 60.042969 L 311.226562 59 L 312.796875 60.613281 Z M 309.632812 59.515625 L 308.949219 58.832031 L 308.039062 57.933594 L 309.097656 56.867188 L 310.011719 57.773438 L 310.695312 58.457031 Z M 307.511719 57.414062 L 305.890625 55.855469 L 306.933594 54.773438 L 308.550781 56.335938 Z M 305.355469 55.347656 L 303.707031 53.8125 L 304.730469 52.714844 L 306.378906 54.25 Z M 303.164062 53.316406 L 301.492188 51.808594 L 302.496094 50.695312 L 304.167969 52.199219 Z M 300.941406 51.320312 L 299.242188 49.84375 L 300.226562 48.710938 L 301.925781 50.1875 Z M 298.679688 49.363281 L 296.957031 47.914062 L 297.921875 46.765625 L 299.648438 48.214844 Z M 296.390625 47.441406 L 294.644531 46.023438 L 295.589844 44.859375 L 297.335938 46.277344 Z M 294.070312 45.566406 L 292.300781 44.175781 L 293.226562 42.996094 L 294.996094 44.386719 Z M 291.714844 43.726562 L 289.921875 42.363281 L 290.828125 41.167969 L 292.621094 42.53125 Z M 289.332031 41.925781 L 287.515625 40.59375 L 288.402344 39.382812 L 290.21875 40.714844 Z M 286.917969 40.164062 L 285.078125 38.863281 L 285.941406 37.636719 L 287.78125 38.9375 Z M 284.46875 38.441406 L 282.609375 37.171875 L 283.453125 35.933594 L 285.316406 37.203125 Z M 281.996094 36.765625 L 280.121094 35.53125 L 280.941406 34.277344 L 282.820312 35.511719 Z M 279.5 35.128906 L 277.601562 33.925781 L 278.402344 32.660156 L 280.304688 33.863281 Z M 276.972656 33.539062 L 275.054688 32.367188 L 275.835938 31.085938 L 277.753906 32.257812 Z M 274.421875 31.988281 L 272.476562 30.847656 L 273.238281 29.554688 L 275.179688 30.691406 Z M 271.835938 30.476562 L 269.875 29.371094 L 270.613281 28.0625 L 272.574219 29.171875 Z M 269.226562 29.011719 L 267.25 27.941406 L 267.964844 26.621094 L 269.941406 27.695312 Z M 266.601562 27.59375 L 264.609375 26.558594 L 265.300781 25.226562 L 267.292969 26.265625 Z M 263.953125 26.222656 L 261.941406 25.21875 L 262.609375 23.875 L 264.621094 24.882812 Z M 261.277344 24.894531 L 259.246094 23.925781 L 259.894531 22.570312 L 261.925781 23.542969 Z M 258.578125 23.609375 L 256.53125 22.671875 L 257.152344 21.308594 L 259.203125 22.246094 Z M 255.855469 22.371094 L 253.785156 21.46875 L 254.386719 20.09375 L 256.457031 20.996094 Z M 253.105469 21.175781 L 251.035156 20.3125 L 251.613281 18.929688 L 253.683594 19.792969 Z M 250.355469 20.035156 L 248.269531 19.207031 L 248.824219 17.8125 L 250.910156 18.644531 Z M 247.582031 18.941406 L 245.480469 18.148438 L 246.007812 16.746094 L 248.113281 17.539062 Z M 244.785156 17.894531 L 242.667969 17.132812 L 243.171875 15.722656 L 245.292969 16.480469 Z M 241.96875 16.890625 L 239.832031 16.164062 L 240.316406 14.746094 L 242.449219 15.46875 Z M 239.128906 15.933594 L 236.976562 15.246094 L 237.433594 13.816406 L 239.585938 14.503906 Z M 236.273438 15.027344 L 234.128906 14.378906 L 234.5625 12.945312 L 236.707031 13.589844 Z M 233.425781 14.175781 L 231.265625 13.5625 L 231.675781 12.121094 L 233.832031 12.730469 Z M 230.554688 13.367188 L 228.382812 12.792969 L 228.765625 11.34375 L 230.941406 11.917969 Z M 227.667969 12.609375 L 225.480469 12.070312 L 225.839844 10.613281 L 228.027344 11.152344 Z M 224.761719 11.898438 L 222.558594 11.394531 L 222.894531 9.933594 L 225.09375 10.4375 Z M 221.835938 11.238281 L 219.621094 10.769531 L 219.929688 9.300781 L 222.144531 9.769531 Z M 218.902344 10.625 L 216.707031 10.199219 L 216.992188 8.726562 L 219.1875 9.152344 Z M 215.984375 10.066406 L 213.777344 9.679688 L 214.039062 8.203125 L 216.246094 8.589844 Z M 213.050781 9.558594 L 210.832031 9.207031 L 211.066406 7.726562 L 213.285156 8.078125 Z M 210.101562 9.097656 L 207.867188 8.785156 L 208.078125 7.296875 L 210.3125 7.613281 Z M 207.132812 8.6875 L 204.890625 8.410156 L 205.074219 6.921875 L 207.320312 7.199219 Z M 204.152344 8.324219 L 201.902344 8.085938 L 202.058594 6.59375 L 204.3125 6.832031 Z M 201.175781 8.011719 L 198.949219 7.8125 L 199.085938 6.320312 L 201.308594 6.519531 Z M 198.21875 7.753906 L 195.984375 7.59375 L 196.09375 6.097656 L 198.328125 6.257812 Z M 195.25 7.546875 L 193.007812 7.417969 L 193.089844 5.921875 L 195.335938 6.046875 Z M 192.269531 7.382812 L 190.015625 7.296875 L 190.074219 5.796875 L 192.328125 5.886719 Z M 189.273438 7.273438 L 187.011719 7.222656 L 187.046875 5.722656 L 189.308594 5.773438 Z M 186.269531 7.210938 L 184.085938 7.199219 L 181.824219 7.210938 L 181.8125 5.710938 L 184.09375 5.699219 L 186.277344 5.710938 Z M 186.269531 7.210938 " fill-opacity="1" fill-rule="nonzero"/></g></g></g></g></g><g clip-path="url(#320dbe290e)"><g clip-path="url(#78c48c03af)"><path stroke-linecap="butt" transform="matrix(1.04636, 0, 0, 1.04636, 14.395979, 13.283351)" fill="none" stroke-linejoin="miter" d="M 165.639873 0.0017256 C 74.158264 0.0017256 -0.0013836 74.161373 -0.0013836 165.639249 C -0.0013836 257.120857 74.158264 331.280505 165.639873 331.280505 C 257.121481 331.280505 331.281129 257.120857 331.281129 165.639249 C 331.281129 74.161373 257.121481 0.0017256 165.639873 0.0017256 Z M 165.639873 0.0017256 " stroke="#94e100" stroke-width="2.867083" stroke-opacity="1" stroke-miterlimit="4"/></g></g><g clip-path="url(#7465ec2c5a)"><path fill="#9bec00" d="M 114.394531 108.078125 C 114.394531 108.078125 121.546875 161.746094 158.386719 170.058594 C 186.308594 176.355469 272.816406 156.230469 272.816406 156.230469 C 272.816406 156.230469 158.492188 199.140625 158.867188 232.988281 C 159.34375 275.902344 212.261719 310.703125 212.261719 310.703125 C 212.261719 310.703125 71.488281 286.179688 114.394531 108.078125 " fill-opacity="1" fill-rule="nonzero"/></g><path fill="#38b6ff" d="M 183.183594 140.496094 C 183.183594 152.742188 173.257812 162.664062 161.011719 162.664062 C 148.769531 162.664062 138.84375 152.742188 138.84375 140.496094 C 138.84375 128.253906 148.769531 118.328125 161.011719 118.328125 C 173.257812 118.328125 183.183594 128.253906 183.183594 140.496094 " fill-opacity="1" fill-rule="nonzero"/><path fill="#669b00" d="M 273.367188 116.800781 C 273.367188 116.800781 235.789062 131.3125 252.703125 154.582031 C 281.425781 156.265625 273.367188 116.800781 273.367188 116.800781 " fill-opacity="1" fill-rule="nonzero"/><path fill="#669b00" d="M 292.125 194.710938 C 292.125 194.710938 285.285156 155.019531 259.144531 167.019531 C 251.84375 194.851562 292.125 194.710938 292.125 194.710938 " fill-opacity="1" fill-rule="nonzero"/><g clip-path="url(#d6bb4a6dc2)"><path fill="#669b00" d="M 329.011719 139.867188 C 329.011719 139.867188 282.109375 118.75 276.144531 155 C 300.386719 182.601562 329.011719 139.867188 329.011719 139.867188 " fill-opacity="1" fill-rule="nonzero"/></g><path fill="#2681b6" d="M 235.464844 203.363281 C 240.578125 212.425781 242.0625 221.113281 239.015625 228.464844 C 229.828125 250.628906 182.953125 252.257812 134.324219 232.097656 C 85.695312 211.933594 53.71875 177.621094 62.910156 155.457031 C 65.957031 148.105469 73.152344 143.015625 83.183594 140.226562 C 66.214844 142.222656 53.875 148.628906 49.433594 159.339844 C 39.191406 184.054688 74.835938 222.3125 129.058594 244.792969 C 183.28125 267.273438 235.542969 265.460938 245.789062 240.746094 C 250.230469 230.035156 246.046875 216.777344 235.464844 203.363281 " fill-opacity="1" fill-rule="nonzero"/></svg>